# MagicaVoxel @ Ephtracy

# group
o 

# material
mtllib Object's-3.mtl
usemtl palette

# normals
vn -1 0 0
vn 1 0 0
vn 0 0 1
vn 0 0 -1
vn 0 -1 0
vn 0 1 0

# texcoords
vt 0.876953 0.5
vt 0.908203 0.5
vt 0.939453 0.5
vt 0.970703 0.5

# verts
v 6.2 0.4 -1.5
v 6.2 0.4 -1.6
v 6.2 0.4 -1.7
v 6.2 0.4 -1.8
v 6.2 0.5 -1.6
v 6.2 0.5 -1.7
v 6.2 0.6 -1.6
v 6.2 0.6 -1.7
v 6.2 0.7 -1.5
v 6.2 0.7 -1.6
v 6.2 0.7 -1.7
v 6.2 0.7 -1.8
v 6.3 0 -1.5
v 6.3 0 -1.7
v 6.3 0 -1.8
v 6.3 0.1 -1.5
v 6.3 0.1 -1.7
v 6.3 0.1 -1.8
v 6.3 0.3 -1.5
v 6.3 0.3 -1.8
v 6.3 0.4 -1.4
v 6.3 0.4 -1.5
v 6.3 0.4 -1.6
v 6.3 0.4 -1.7
v 6.3 0.4 -1.8
v 6.3 0.4 -1.9
v 6.3 0.7 -1.4
v 6.3 0.7 -1.5
v 6.3 0.7 -1.8
v 6.3 0.7 -1.9
v 6.4 0.1 -1.6
v 6.4 0.1 -1.7
v 6.4 0.3 -1.6
v 6.4 0.3 -1.7
v 6.6 0.4 -1.5
v 6.6 0.4 -1.7
v 6.6 0.4 -1.8
v 6.6 0.5 -1.5
v 6.6 0.5 -1.7
v 6.6 0.5 -1.8
v 6.6 0.6 -1.5
v 6.6 0.6 -1.8
v 6.6 0.7 -1.5
v 6.6 0.7 -1.8
v 6.3 0.4 -1.5
v 6.3 0.4 -1.6
v 6.3 0.4 -1.7
v 6.3 0.4 -1.8
v 6.3 0.5 -1.5
v 6.3 0.5 -1.6
v 6.3 0.5 -1.7
v 6.3 0.5 -1.8
v 6.3 0.6 -1.5
v 6.3 0.6 -1.6
v 6.3 0.6 -1.7
v 6.3 0.6 -1.8
v 6.3 0.7 -1.5
v 6.3 0.7 -1.6
v 6.3 0.7 -1.7
v 6.3 0.7 -1.8
v 6.5 0.1 -1.6
v 6.5 0.1 -1.7
v 6.5 0.3 -1.6
v 6.5 0.3 -1.7
v 6.6 0 -1.5
v 6.6 0 -1.7
v 6.6 0 -1.8
v 6.6 0.1 -1.5
v 6.6 0.1 -1.7
v 6.6 0.1 -1.8
v 6.6 0.3 -1.5
v 6.6 0.3 -1.8
v 6.6 0.4 -1.4
v 6.6 0.4 -1.5
v 6.6 0.4 -1.7
v 6.6 0.4 -1.8
v 6.6 0.4 -1.9
v 6.6 0.5 -1.4
v 6.6 0.5 -1.5
v 6.6 0.5 -1.8
v 6.6 0.7 -1.4
v 6.6 0.7 -1.5
v 6.6 0.7 -1.8
v 6.6 0.7 -1.9
v 6.7 0.4 -1.5
v 6.7 0.4 -1.7
v 6.7 0.4 -1.8
v 6.7 0.5 -1.6
v 6.7 0.5 -1.7
v 6.7 0.5 -1.8
v 6.7 0.6 -1.6
v 6.7 0.6 -1.7
v 6.7 0.7 -1.5
v 6.7 0.7 -1.8
v 6.3 0.4 -1.4
v 6.3 0.7 -1.4
v 6.4 0.5 -1.4
v 6.4 0.6 -1.4
v 6.5 0.4 -1.4
v 6.5 0.5 -1.4
v 6.5 0.6 -1.4
v 6.6 0.4 -1.4
v 6.6 0.5 -1.4
v 6.6 0.7 -1.4
v 6.2 0.4 -1.5
v 6.2 0.7 -1.5
v 6.3 0 -1.5
v 6.3 0.1 -1.5
v 6.3 0.3 -1.5
v 6.3 0.4 -1.5
v 6.3 0.7 -1.5
v 6.4 0 -1.5
v 6.4 0.1 -1.5
v 6.5 0 -1.5
v 6.5 0.1 -1.5
v 6.5 0.4 -1.5
v 6.6 0 -1.5
v 6.6 0.1 -1.5
v 6.6 0.3 -1.5
v 6.6 0.4 -1.5
v 6.6 0.5 -1.5
v 6.6 0.7 -1.5
v 6.7 0.4 -1.5
v 6.7 0.7 -1.5
v 6.4 0.1 -1.6
v 6.4 0.3 -1.6
v 6.5 0.1 -1.6
v 6.5 0.3 -1.6
v 6.3 0.4 -1.8
v 6.3 0.5 -1.8
v 6.3 0.6 -1.8
v 6.3 0.7 -1.8
v 6.4 0.6 -1.8
v 6.4 0.7 -1.8
v 6.5 0.6 -1.8
v 6.5 0.7 -1.8
v 6.6 0.4 -1.8
v 6.6 0.5 -1.8
v 6.6 0.6 -1.8
v 6.6 0.7 -1.8
v 6.3 0.4 -1.5
v 6.3 0.5 -1.5
v 6.3 0.6 -1.5
v 6.3 0.7 -1.5
v 6.5 0.4 -1.5
v 6.5 0.5 -1.5
v 6.6 0.4 -1.5
v 6.6 0.5 -1.5
v 6.6 0.6 -1.5
v 6.6 0.7 -1.5
v 6.4 0.1 -1.7
v 6.4 0.3 -1.7
v 6.5 0.1 -1.7
v 6.5 0.3 -1.7
v 6.2 0.4 -1.8
v 6.2 0.7 -1.8
v 6.3 0 -1.8
v 6.3 0.1 -1.8
v 6.3 0.3 -1.8
v 6.3 0.4 -1.8
v 6.3 0.7 -1.8
v 6.4 0 -1.8
v 6.4 0.1 -1.8
v 6.5 0 -1.8
v 6.5 0.1 -1.8
v 6.6 0 -1.8
v 6.6 0.1 -1.8
v 6.6 0.3 -1.8
v 6.6 0.4 -1.8
v 6.6 0.5 -1.8
v 6.6 0.7 -1.8
v 6.7 0.4 -1.8
v 6.7 0.5 -1.8
v 6.7 0.7 -1.8
v 6.3 0.4 -1.9
v 6.3 0.7 -1.9
v 6.4 0.5 -1.9
v 6.4 0.6 -1.9
v 6.4 0.7 -1.9
v 6.5 0.5 -1.9
v 6.5 0.6 -1.9
v 6.5 0.7 -1.9
v 6.6 0.4 -1.9
v 6.6 0.7 -1.9
v 6.3 0 -1.5
v 6.4 0 -1.5
v 6.5 0 -1.5
v 6.6 0 -1.5
v 6.4 0 -1.6
v 6.5 0 -1.6
v 6.3 0 -1.7
v 6.4 0 -1.7
v 6.5 0 -1.7
v 6.6 0 -1.7
v 6.3 0 -1.8
v 6.4 0 -1.8
v 6.5 0 -1.8
v 6.6 0 -1.8
v 6.3 0.3 -1.5
v 6.6 0.3 -1.5
v 6.4 0.3 -1.6
v 6.5 0.3 -1.6
v 6.4 0.3 -1.7
v 6.5 0.3 -1.7
v 6.3 0.3 -1.8
v 6.6 0.3 -1.8
v 6.3 0.4 -1.4
v 6.5 0.4 -1.4
v 6.6 0.4 -1.4
v 6.2 0.4 -1.5
v 6.3 0.4 -1.5
v 6.5 0.4 -1.5
v 6.6 0.4 -1.5
v 6.7 0.4 -1.5
v 6.2 0.4 -1.6
v 6.3 0.4 -1.6
v 6.2 0.4 -1.7
v 6.3 0.4 -1.7
v 6.6 0.4 -1.7
v 6.7 0.4 -1.7
v 6.2 0.4 -1.8
v 6.3 0.4 -1.8
v 6.6 0.4 -1.8
v 6.7 0.4 -1.8
v 6.3 0.4 -1.9
v 6.6 0.4 -1.9
v 6.3 0.5 -1.5
v 6.5 0.5 -1.5
v 6.6 0.5 -1.5
v 6.3 0.5 -1.6
v 6.3 0.5 -1.7
v 6.6 0.5 -1.7
v 6.3 0.5 -1.8
v 6.6 0.5 -1.8
v 6.3 0.1 -1.5
v 6.4 0.1 -1.5
v 6.5 0.1 -1.5
v 6.6 0.1 -1.5
v 6.4 0.1 -1.6
v 6.5 0.1 -1.6
v 6.3 0.1 -1.7
v 6.4 0.1 -1.7
v 6.5 0.1 -1.7
v 6.6 0.1 -1.7
v 6.3 0.1 -1.8
v 6.4 0.1 -1.8
v 6.5 0.1 -1.8
v 6.6 0.1 -1.8
v 6.3 0.4 -1.5
v 6.5 0.4 -1.5
v 6.6 0.4 -1.5
v 6.3 0.4 -1.6
v 6.3 0.4 -1.7
v 6.6 0.4 -1.7
v 6.3 0.4 -1.8
v 6.6 0.4 -1.8
v 6.3 0.6 -1.5
v 6.6 0.6 -1.5
v 6.3 0.6 -1.6
v 6.3 0.6 -1.7
v 6.3 0.6 -1.8
v 6.4 0.6 -1.8
v 6.5 0.6 -1.8
v 6.6 0.6 -1.8
v 6.3 0.7 -1.4
v 6.6 0.7 -1.4
v 6.2 0.7 -1.5
v 6.3 0.7 -1.5
v 6.6 0.7 -1.5
v 6.7 0.7 -1.5
v 6.2 0.7 -1.6
v 6.3 0.7 -1.6
v 6.2 0.7 -1.7
v 6.3 0.7 -1.7
v 6.2 0.7 -1.8
v 6.3 0.7 -1.8
v 6.4 0.7 -1.8
v 6.5 0.7 -1.8
v 6.6 0.7 -1.8
v 6.7 0.7 -1.8
v 6.3 0.7 -1.9
v 6.4 0.7 -1.9
v 6.5 0.7 -1.9
v 6.6 0.7 -1.9

# faces
f 5/4/1 2/4/1 1/4/1
f 5/3/1 3/3/1 2/3/1
f 6/4/1 4/4/1 3/4/1
f 6/3/1 3/3/1 5/3/1
f 7/4/1 5/4/1 1/4/1
f 7/1/1 6/1/1 5/1/1
f 8/4/1 4/4/1 6/4/1
f 8/1/1 6/1/1 7/1/1
f 9/4/1 7/4/1 1/4/1
f 10/3/1 8/3/1 7/3/1
f 10/4/1 7/4/1 9/4/1
f 11/4/1 4/4/1 8/4/1
f 11/3/1 8/3/1 10/3/1
f 12/4/1 4/4/1 11/4/1
f 16/4/1 14/4/1 13/4/1
f 17/3/1 15/3/1 14/3/1
f 17/4/1 14/4/1 16/4/1
f 18/3/1 15/3/1 17/3/1
f 22/4/1 20/4/1 19/4/1
f 23/4/1 20/4/1 22/4/1
f 24/4/1 20/4/1 23/4/1
f 25/4/1 20/4/1 24/4/1
f 27/4/1 22/4/1 21/4/1
f 28/4/1 22/4/1 27/4/1
f 29/4/1 26/4/1 25/4/1
f 30/4/1 26/4/1 29/4/1
f 33/4/1 32/4/1 31/4/1
f 34/4/1 32/4/1 33/4/1
f 38/4/1 36/4/1 35/4/1
f 39/3/1 37/3/1 36/3/1
f 39/4/1 36/4/1 38/4/1
f 40/3/1 37/3/1 39/3/1
f 43/4/1 42/4/1 41/4/1
f 44/4/1 42/4/1 43/4/1
f 45/4/2 46/4/2 49/4/2
f 46/3/2 47/3/2 50/3/2
f 49/4/2 46/4/2 50/4/2
f 47/4/2 48/4/2 51/4/2
f 50/3/2 47/3/2 51/3/2
f 51/4/2 48/4/2 52/4/2
f 53/4/2 54/4/2 57/4/2
f 54/3/2 55/3/2 58/3/2
f 57/4/2 54/4/2 58/4/2
f 55/4/2 56/4/2 59/4/2
f 58/3/2 55/3/2 59/3/2
f 59/4/2 56/4/2 60/4/2
f 61/4/2 62/4/2 63/4/2
f 63/4/2 62/4/2 64/4/2
f 65/4/2 66/4/2 68/4/2
f 66/3/2 67/3/2 69/3/2
f 68/4/2 66/4/2 69/4/2
f 69/3/2 67/3/2 70/3/2
f 71/4/2 72/4/2 74/4/2
f 74/4/2 72/4/2 75/4/2
f 75/4/2 72/4/2 76/4/2
f 73/3/2 74/3/2 78/3/2
f 78/3/2 74/3/2 79/3/2
f 76/4/2 77/4/2 80/4/2
f 78/4/2 79/4/2 81/4/2
f 81/4/2 79/4/2 82/4/2
f 80/4/2 77/4/2 83/4/2
f 83/4/2 77/4/2 84/4/2
f 85/4/2 86/4/2 88/4/2
f 86/3/2 87/3/2 89/3/2
f 88/4/2 86/4/2 89/4/2
f 89/3/2 87/3/2 90/3/2
f 85/4/2 88/4/2 91/4/2
f 88/1/2 89/1/2 91/1/2
f 89/4/2 90/4/2 92/4/2
f 91/1/2 89/1/2 92/1/2
f 85/4/2 91/4/2 93/4/2
f 91/4/2 92/4/2 93/4/2
f 92/4/2 90/4/2 94/4/2
f 93/4/2 92/4/2 94/4/2
f 97/4/3 96/4/3 95/4/3
f 98/4/3 96/4/3 97/4/3
f 99/4/3 97/4/3 95/4/3
f 100/1/3 98/1/3 97/1/3
f 100/4/3 97/4/3 99/4/3
f 101/4/3 96/4/3 98/4/3
f 101/1/3 98/1/3 100/1/3
f 102/3/3 100/3/3 99/3/3
f 103/4/3 101/4/3 100/4/3
f 103/3/3 100/3/3 102/3/3
f 104/4/3 96/4/3 101/4/3
f 104/4/3 101/4/3 103/4/3
f 110/4/3 106/4/3 105/4/3
f 111/4/3 106/4/3 110/4/3
f 112/4/3 108/4/3 107/4/3
f 113/4/3 108/4/3 112/4/3
f 114/3/3 113/3/3 112/3/3
f 115/3/3 113/3/3 114/3/3
f 116/4/3 110/4/3 109/4/3
f 117/4/3 115/4/3 114/4/3
f 118/4/3 115/4/3 117/4/3
f 119/4/3 116/4/3 109/4/3
f 120/4/3 116/4/3 119/4/3
f 123/4/3 122/4/3 121/4/3
f 123/4/3 121/4/3 120/4/3
f 124/4/3 122/4/3 123/4/3
f 127/4/3 126/4/3 125/4/3
f 128/4/3 126/4/3 127/4/3
f 133/4/3 132/4/3 131/4/3
f 134/4/3 132/4/3 133/4/3
f 135/3/3 134/3/3 133/3/3
f 136/3/3 134/3/3 135/3/3
f 137/4/3 130/4/3 129/4/3
f 138/4/3 130/4/3 137/4/3
f 139/4/3 136/4/3 135/4/3
f 140/4/3 136/4/3 139/4/3
f 141/4/4 142/4/4 145/4/4
f 145/4/4 142/4/4 146/4/4
f 145/3/4 146/3/4 147/3/4
f 147/3/4 146/3/4 148/3/4
f 143/4/4 144/4/4 149/4/4
f 149/4/4 144/4/4 150/4/4
f 151/4/4 152/4/4 153/4/4
f 153/4/4 152/4/4 154/4/4
f 155/4/4 156/4/4 160/4/4
f 160/4/4 156/4/4 161/4/4
f 157/3/4 158/3/4 162/3/4
f 162/3/4 158/3/4 163/3/4
f 162/4/4 163/4/4 164/4/4
f 164/4/4 163/4/4 165/4/4
f 164/3/4 165/3/4 166/3/4
f 166/3/4 165/3/4 167/3/4
f 159/4/4 160/4/4 168/4/4
f 168/4/4 160/4/4 169/4/4
f 169/3/4 170/3/4 172/3/4
f 170/4/4 171/4/4 173/4/4
f 172/3/4 170/3/4 173/3/4
f 173/4/4 171/4/4 174/4/4
f 175/4/4 176/4/4 177/4/4
f 177/4/4 176/4/4 178/4/4
f 178/4/4 176/4/4 179/4/4
f 175/4/4 177/4/4 180/4/4
f 177/1/4 178/1/4 180/1/4
f 178/3/4 179/3/4 181/3/4
f 180/1/4 178/1/4 181/1/4
f 181/3/4 179/3/4 182/3/4
f 175/4/4 180/4/4 183/4/4
f 180/4/4 181/4/4 183/4/4
f 181/4/4 182/4/4 183/4/4
f 183/4/4 182/4/4 184/4/4
f 189/4/5 186/4/5 185/4/5
f 189/3/5 187/3/5 186/3/5
f 190/4/5 188/4/5 187/4/5
f 190/3/5 187/3/5 189/3/5
f 191/4/5 189/4/5 185/4/5
f 191/4/5 190/4/5 189/4/5
f 192/4/5 190/4/5 191/4/5
f 193/4/5 188/4/5 190/4/5
f 193/4/5 190/4/5 192/4/5
f 194/4/5 188/4/5 193/4/5
f 195/3/5 192/3/5 191/3/5
f 196/4/5 193/4/5 192/4/5
f 196/3/5 192/3/5 195/3/5
f 197/3/5 194/3/5 193/3/5
f 197/4/5 193/4/5 196/4/5
f 198/3/5 194/3/5 197/3/5
f 201/4/5 200/4/5 199/4/5
f 202/4/5 200/4/5 201/4/5
f 203/4/5 201/4/5 199/4/5
f 204/4/5 200/4/5 202/4/5
f 205/4/5 203/4/5 199/4/5
f 205/4/5 204/4/5 203/4/5
f 206/4/5 200/4/5 204/4/5
f 206/4/5 204/4/5 205/4/5
f 211/4/5 208/4/5 207/4/5
f 212/3/5 209/3/5 208/3/5
f 212/4/5 208/4/5 211/4/5
f 213/3/5 209/3/5 212/3/5
f 215/4/5 211/4/5 210/4/5
f 216/4/5 211/4/5 215/4/5
f 217/3/5 216/3/5 215/3/5
f 218/3/5 216/3/5 217/3/5
f 219/4/5 214/4/5 213/4/5
f 220/4/5 214/4/5 219/4/5
f 221/4/5 218/4/5 217/4/5
f 222/4/5 218/4/5 221/4/5
f 223/3/5 220/3/5 219/3/5
f 224/3/5 220/3/5 223/3/5
f 225/4/5 223/4/5 222/4/5
f 226/4/5 223/4/5 225/4/5
f 230/2/5 228/2/5 227/2/5
f 230/2/5 229/2/5 228/2/5
f 231/2/5 229/2/5 230/2/5
f 232/2/5 229/2/5 231/2/5
f 233/2/5 232/2/5 231/2/5
f 234/2/5 232/2/5 233/2/5
f 235/4/6 236/4/6 239/4/6
f 236/3/6 237/3/6 239/3/6
f 237/4/6 238/4/6 240/4/6
f 239/3/6 237/3/6 240/3/6
f 235/4/6 239/4/6 241/4/6
f 241/4/6 239/4/6 242/4/6
f 240/4/6 238/4/6 243/4/6
f 243/4/6 238/4/6 244/4/6
f 241/3/6 242/3/6 245/3/6
f 242/4/6 243/4/6 246/4/6
f 245/3/6 242/3/6 246/3/6
f 243/3/6 244/3/6 247/3/6
f 246/4/6 243/4/6 247/4/6
f 247/3/6 244/3/6 248/3/6
f 249/4/6 250/4/6 252/4/6
f 250/4/6 251/4/6 252/4/6
f 252/4/6 251/4/6 253/4/6
f 253/4/6 251/4/6 254/4/6
f 253/4/6 254/4/6 255/4/6
f 255/4/6 254/4/6 256/4/6
f 257/2/6 258/2/6 259/2/6
f 259/2/6 258/2/6 260/2/6
f 260/2/6 258/2/6 261/2/6
f 261/2/6 258/2/6 262/2/6
f 262/2/6 258/2/6 263/2/6
f 263/2/6 258/2/6 264/2/6
f 265/4/6 266/4/6 268/4/6
f 268/4/6 266/4/6 269/4/6
f 267/4/6 268/4/6 271/4/6
f 271/4/6 268/4/6 272/4/6
f 271/3/6 272/3/6 273/3/6
f 273/3/6 272/3/6 274/3/6
f 273/4/6 274/4/6 275/4/6
f 275/4/6 274/4/6 276/4/6
f 269/4/6 270/4/6 279/4/6
f 279/4/6 270/4/6 280/4/6
f 276/4/6 277/4/6 281/4/6
f 277/3/6 278/3/6 282/3/6
f 281/4/6 277/4/6 282/4/6
f 278/4/6 279/4/6 283/4/6
f 282/3/6 278/3/6 283/3/6
f 283/4/6 279/4/6 284/4/6
