# MagicaVoxel @ Ephtracy

# group
o 

# material
mtllib Object's-0.mtl
usemtl palette

# normals
vn -1 0 0
vn 1 0 0
vn 0 0 1
vn 0 0 -1
vn 0 -1 0
vn 0 1 0

# texcoords
vt 0.00585938 0.5
vt 0.951172 0.5

# verts
v 12.7 2.4 -1.5
v 12.7 2.4 -1.6
v 12.7 2.7 -1.5
v 12.7 2.7 -1.6
v 12.8 2 -1.4
v 12.8 2 -1.5
v 12.8 2 -1.6
v 12.8 2 -1.7
v 12.8 2.2 -1.4
v 12.8 2.2 -1.5
v 12.8 2.2 -1.6
v 12.8 2.2 -1.7
v 12.8 2.3 -1.5
v 12.8 2.3 -1.6
v 12.8 2.7 -1.5
v 12.8 2.7 -1.6
v 12.8 2.8 -1.5
v 12.8 2.8 -1.6
v 12.9 0 -1.5
v 12.9 0 -1.6
v 12.9 0.1 -1.5
v 12.9 0.1 -1.6
v 12.9 2 -1.5
v 12.9 2 -1.6
v 12.9 2.2 -1.4
v 12.9 2.2 -1.5
v 12.9 2.2 -1.6
v 12.9 2.2 -1.7
v 12.9 2.3 -1.4
v 12.9 2.3 -1.5
v 12.9 2.3 -1.6
v 12.9 2.3 -1.7
v 12.9 2.7 -1.5
v 12.9 2.7 -1.6
v 12.9 2.8 -1.5
v 12.9 2.8 -1.6
v 12.9 3 -1.5
v 12.9 3 -1.6
v 13 2 -1.4
v 13 2 -1.5
v 13 2 -1.6
v 13 2 -1.7
v 13 2.2 -1.4
v 13 2.2 -1.5
v 13 2.2 -1.6
v 13 2.2 -1.7
v 12.8 2.4 -1.5
v 12.8 2.4 -1.6
v 12.8 2.7 -1.5
v 12.8 2.7 -1.6
v 12.9 2 -1.4
v 12.9 2 -1.5
v 12.9 2 -1.6
v 12.9 2 -1.7
v 12.9 2.2 -1.4
v 12.9 2.2 -1.5
v 12.9 2.2 -1.6
v 12.9 2.2 -1.7
v 13 0 -1.5
v 13 0 -1.6
v 13 0.1 -1.5
v 13 0.1 -1.6
v 13 2 -1.5
v 13 2 -1.6
v 13 2.2 -1.4
v 13 2.2 -1.5
v 13 2.2 -1.6
v 13 2.2 -1.7
v 13 2.3 -1.4
v 13 2.3 -1.5
v 13 2.3 -1.6
v 13 2.3 -1.7
v 13 3 -1.5
v 13 3 -1.6
v 13.1 2 -1.4
v 13.1 2 -1.5
v 13.1 2 -1.6
v 13.1 2 -1.7
v 13.1 2.2 -1.4
v 13.1 2.2 -1.5
v 13.1 2.2 -1.6
v 13.1 2.2 -1.7
v 13.1 2.3 -1.5
v 13.1 2.3 -1.6
v 12.8 2 -1.4
v 12.8 2.2 -1.4
v 12.9 2 -1.4
v 12.9 2.2 -1.4
v 12.9 2.3 -1.4
v 13 2 -1.4
v 13 2.2 -1.4
v 13 2.3 -1.4
v 13.1 2 -1.4
v 13.1 2.2 -1.4
v 12.7 2.4 -1.5
v 12.7 2.7 -1.5
v 12.8 2.2 -1.5
v 12.8 2.3 -1.5
v 12.8 2.4 -1.5
v 12.8 2.7 -1.5
v 12.8 2.8 -1.5
v 12.9 0 -1.5
v 12.9 0.1 -1.5
v 12.9 2 -1.5
v 12.9 2.2 -1.5
v 12.9 2.3 -1.5
v 12.9 2.7 -1.5
v 12.9 2.8 -1.5
v 12.9 3 -1.5
v 13 0 -1.5
v 13 0.1 -1.5
v 13 2 -1.5
v 13 2.2 -1.5
v 13 2.3 -1.5
v 13 3 -1.5
v 13.1 2.2 -1.5
v 13.1 2.3 -1.5
v 12.8 2 -1.6
v 12.8 2.2 -1.6
v 12.9 2 -1.6
v 12.9 2.2 -1.6
v 13 2 -1.6
v 13 2.2 -1.6
v 13.1 2 -1.6
v 13.1 2.2 -1.6
v 12.8 2 -1.5
v 12.8 2.2 -1.5
v 12.9 2 -1.5
v 12.9 2.2 -1.5
v 13 2 -1.5
v 13 2.2 -1.5
v 13.1 2 -1.5
v 13.1 2.2 -1.5
v 12.7 2.4 -1.6
v 12.7 2.7 -1.6
v 12.8 2.2 -1.6
v 12.8 2.3 -1.6
v 12.8 2.4 -1.6
v 12.8 2.7 -1.6
v 12.8 2.8 -1.6
v 12.9 0 -1.6
v 12.9 0.1 -1.6
v 12.9 2 -1.6
v 12.9 2.2 -1.6
v 12.9 2.3 -1.6
v 12.9 2.7 -1.6
v 12.9 2.8 -1.6
v 12.9 3 -1.6
v 13 0 -1.6
v 13 0.1 -1.6
v 13 2 -1.6
v 13 2.2 -1.6
v 13 2.3 -1.6
v 13 3 -1.6
v 13.1 2.2 -1.6
v 13.1 2.3 -1.6
v 12.8 2 -1.7
v 12.8 2.2 -1.7
v 12.9 2 -1.7
v 12.9 2.2 -1.7
v 12.9 2.3 -1.7
v 13 2 -1.7
v 13 2.2 -1.7
v 13 2.3 -1.7
v 13.1 2 -1.7
v 13.1 2.2 -1.7
v 12.9 0 -1.5
v 13 0 -1.5
v 12.9 0 -1.6
v 13 0 -1.6
v 12.8 2 -1.4
v 12.9 2 -1.4
v 13 2 -1.4
v 13.1 2 -1.4
v 12.8 2 -1.5
v 12.9 2 -1.5
v 13 2 -1.5
v 13.1 2 -1.5
v 12.8 2 -1.6
v 12.9 2 -1.6
v 13 2 -1.6
v 13.1 2 -1.6
v 12.8 2 -1.7
v 12.9 2 -1.7
v 13 2 -1.7
v 13.1 2 -1.7
v 12.9 2.2 -1.4
v 13 2.2 -1.4
v 12.8 2.2 -1.5
v 12.9 2.2 -1.5
v 13 2.2 -1.5
v 13.1 2.2 -1.5
v 12.8 2.2 -1.6
v 12.9 2.2 -1.6
v 13 2.2 -1.6
v 13.1 2.2 -1.6
v 12.9 2.2 -1.7
v 13 2.2 -1.7
v 12.7 2.4 -1.5
v 12.8 2.4 -1.5
v 12.7 2.4 -1.6
v 12.8 2.4 -1.6
v 12.8 2.7 -1.5
v 12.9 2.7 -1.5
v 12.8 2.7 -1.6
v 12.9 2.7 -1.6
v 12.8 2.2 -1.4
v 12.9 2.2 -1.4
v 13 2.2 -1.4
v 13.1 2.2 -1.4
v 12.8 2.2 -1.5
v 12.9 2.2 -1.5
v 13 2.2 -1.5
v 13.1 2.2 -1.5
v 12.8 2.2 -1.6
v 12.9 2.2 -1.6
v 13 2.2 -1.6
v 13.1 2.2 -1.6
v 12.8 2.2 -1.7
v 12.9 2.2 -1.7
v 13 2.2 -1.7
v 13.1 2.2 -1.7
v 12.9 2.3 -1.4
v 13 2.3 -1.4
v 12.8 2.3 -1.5
v 12.9 2.3 -1.5
v 13 2.3 -1.5
v 13.1 2.3 -1.5
v 12.8 2.3 -1.6
v 12.9 2.3 -1.6
v 13 2.3 -1.6
v 13.1 2.3 -1.6
v 12.9 2.3 -1.7
v 13 2.3 -1.7
v 12.7 2.7 -1.5
v 12.8 2.7 -1.5
v 12.7 2.7 -1.6
v 12.8 2.7 -1.6
v 12.8 2.8 -1.5
v 12.9 2.8 -1.5
v 12.8 2.8 -1.6
v 12.9 2.8 -1.6
v 12.9 3 -1.5
v 13 3 -1.5
v 12.9 3 -1.6
v 13 3 -1.6

# faces
f 3/2/1 2/2/1 1/2/1
f 4/2/1 2/2/1 3/2/1
f 9/2/1 6/2/1 5/2/1
f 10/2/1 6/2/1 9/2/1
f 11/2/1 8/2/1 7/2/1
f 12/2/1 8/2/1 11/2/1
f 13/2/1 11/2/1 10/2/1
f 14/2/1 11/2/1 13/2/1
f 17/2/1 16/2/1 15/2/1
f 18/2/1 16/2/1 17/2/1
f 21/2/1 20/2/1 19/2/1
f 22/2/1 20/2/1 21/2/1
f 23/1/1 22/1/1 21/1/1
f 24/1/1 22/1/1 23/1/1
f 26/1/1 24/1/1 23/1/1
f 27/1/1 24/1/1 26/1/1
f 29/2/1 26/2/1 25/2/1
f 30/2/1 26/2/1 29/2/1
f 31/2/1 28/2/1 27/2/1
f 32/2/1 28/2/1 31/2/1
f 33/2/1 31/2/1 30/2/1
f 34/2/1 31/2/1 33/2/1
f 37/2/1 36/2/1 35/2/1
f 38/2/1 36/2/1 37/2/1
f 43/2/1 40/2/1 39/2/1
f 44/2/1 40/2/1 43/2/1
f 45/2/1 42/2/1 41/2/1
f 46/2/1 42/2/1 45/2/1
f 47/2/2 48/2/2 49/2/2
f 49/2/2 48/2/2 50/2/2
f 51/2/2 52/2/2 55/2/2
f 55/2/2 52/2/2 56/2/2
f 53/2/2 54/2/2 57/2/2
f 57/2/2 54/2/2 58/2/2
f 59/2/2 60/2/2 61/2/2
f 61/2/2 60/2/2 62/2/2
f 61/1/2 62/1/2 63/1/2
f 63/1/2 62/1/2 64/1/2
f 63/1/2 64/1/2 66/1/2
f 66/1/2 64/1/2 67/1/2
f 65/2/2 66/2/2 69/2/2
f 69/2/2 66/2/2 70/2/2
f 67/2/2 68/2/2 71/2/2
f 71/2/2 68/2/2 72/2/2
f 70/2/2 71/2/2 73/2/2
f 73/2/2 71/2/2 74/2/2
f 75/2/2 76/2/2 79/2/2
f 79/2/2 76/2/2 80/2/2
f 77/2/2 78/2/2 81/2/2
f 81/2/2 78/2/2 82/2/2
f 80/2/2 81/2/2 83/2/2
f 83/2/2 81/2/2 84/2/2
f 87/2/3 86/2/3 85/2/3
f 88/2/3 86/2/3 87/2/3
f 91/2/3 89/2/3 88/2/3
f 92/2/3 89/2/3 91/2/3
f 93/2/3 91/2/3 90/2/3
f 94/2/3 91/2/3 93/2/3
f 99/2/3 96/2/3 95/2/3
f 100/2/3 96/2/3 99/2/3
f 105/2/3 98/2/3 97/2/3
f 106/2/3 98/2/3 105/2/3
f 107/2/3 101/2/3 100/2/3
f 108/2/3 101/2/3 107/2/3
f 110/2/3 103/2/3 102/2/3
f 111/1/3 104/1/3 103/1/3
f 111/2/3 103/2/3 110/2/3
f 111/1/3 105/1/3 104/1/3
f 112/1/3 105/1/3 111/1/3
f 113/1/3 105/1/3 112/1/3
f 114/2/3 109/2/3 108/2/3
f 114/2/3 108/2/3 107/2/3
f 114/2/3 107/2/3 106/2/3
f 115/2/3 109/2/3 114/2/3
f 116/2/3 114/2/3 113/2/3
f 117/2/3 114/2/3 116/2/3
f 120/2/3 119/2/3 118/2/3
f 121/2/3 119/2/3 120/2/3
f 124/2/3 123/2/3 122/2/3
f 125/2/3 123/2/3 124/2/3
f 126/2/4 127/2/4 128/2/4
f 128/2/4 127/2/4 129/2/4
f 130/2/4 131/2/4 132/2/4
f 132/2/4 131/2/4 133/2/4
f 134/2/4 135/2/4 138/2/4
f 138/2/4 135/2/4 139/2/4
f 136/2/4 137/2/4 144/2/4
f 144/2/4 137/2/4 145/2/4
f 139/2/4 140/2/4 146/2/4
f 146/2/4 140/2/4 147/2/4
f 141/2/4 142/2/4 149/2/4
f 142/1/4 143/1/4 150/1/4
f 149/2/4 142/2/4 150/2/4
f 143/1/4 144/1/4 150/1/4
f 150/1/4 144/1/4 151/1/4
f 151/1/4 144/1/4 152/1/4
f 147/2/4 148/2/4 153/2/4
f 146/2/4 147/2/4 153/2/4
f 145/2/4 146/2/4 153/2/4
f 153/2/4 148/2/4 154/2/4
f 152/2/4 153/2/4 155/2/4
f 155/2/4 153/2/4 156/2/4
f 157/2/4 158/2/4 159/2/4
f 159/2/4 158/2/4 160/2/4
f 160/2/4 161/2/4 163/2/4
f 163/2/4 161/2/4 164/2/4
f 162/2/4 163/2/4 165/2/4
f 165/2/4 163/2/4 166/2/4
f 169/2/5 168/2/5 167/2/5
f 170/2/5 168/2/5 169/2/5
f 175/2/5 172/2/5 171/2/5
f 176/2/5 172/2/5 175/2/5
f 177/2/5 174/2/5 173/2/5
f 178/2/5 174/2/5 177/2/5
f 183/2/5 180/2/5 179/2/5
f 184/2/5 180/2/5 183/2/5
f 185/2/5 182/2/5 181/2/5
f 186/2/5 182/2/5 185/2/5
f 190/2/5 188/2/5 187/2/5
f 191/2/5 188/2/5 190/2/5
f 193/2/5 190/2/5 189/2/5
f 194/2/5 190/2/5 193/2/5
f 195/2/5 192/2/5 191/2/5
f 196/2/5 192/2/5 195/2/5
f 197/2/5 195/2/5 194/2/5
f 198/2/5 195/2/5 197/2/5
f 201/2/5 200/2/5 199/2/5
f 202/2/5 200/2/5 201/2/5
f 205/2/5 204/2/5 203/2/5
f 206/2/5 204/2/5 205/2/5
f 207/2/6 208/2/6 211/2/6
f 211/2/6 208/2/6 212/2/6
f 209/2/6 210/2/6 213/2/6
f 213/2/6 210/2/6 214/2/6
f 215/2/6 216/2/6 219/2/6
f 219/2/6 216/2/6 220/2/6
f 217/2/6 218/2/6 221/2/6
f 221/2/6 218/2/6 222/2/6
f 223/2/6 224/2/6 226/2/6
f 226/2/6 224/2/6 227/2/6
f 225/2/6 226/2/6 229/2/6
f 229/2/6 226/2/6 230/2/6
f 227/2/6 228/2/6 231/2/6
f 231/2/6 228/2/6 232/2/6
f 230/2/6 231/2/6 233/2/6
f 233/2/6 231/2/6 234/2/6
f 235/2/6 236/2/6 237/2/6
f 237/2/6 236/2/6 238/2/6
f 239/2/6 240/2/6 241/2/6
f 241/2/6 240/2/6 242/2/6
f 243/2/6 244/2/6 245/2/6
f 245/2/6 244/2/6 246/2/6
