# MagicaVoxel @ Ephtracy

# group
o 

# material
mtllib Object's-6.mtl
usemtl palette

# normals
vn -1 0 0
vn 1 0 0
vn 0 0 1
vn 0 0 -1
vn 0 -1 0
vn 0 1 0

# texcoords
vt 0.884766 0.5
vt 0.916016 0.5
vt 0.947266 0.5
vt 0.978516 0.5

# verts
v 2.1 0.3 -1.5
v 2.1 0.3 -1.6
v 2.1 0.6 -1.5
v 2.1 0.6 -1.6
v 2.1 0.7 -1.5
v 2.1 0.7 -1.6
v 2.1 1 -1.5
v 2.1 1 -1.6
v 2.1 1.1 -1.5
v 2.1 1.1 -1.6
v 2.2 0.2 -1.5
v 2.2 0.2 -1.6
v 2.2 0.3 -1.5
v 2.2 0.3 -1.6
v 2.2 0.4 -1.4
v 2.2 0.4 -1.5
v 2.2 0.5 -1.4
v 2.2 0.5 -1.5
v 2.2 0.6 -1.4
v 2.2 0.6 -1.5
v 2.2 0.7 -1.5
v 2.2 0.8 -1.4
v 2.2 0.8 -1.5
v 2.2 0.9 -1.4
v 2.2 0.9 -1.5
v 2.2 1 -1.4
v 2.2 1 -1.5
v 2.2 1.1 -1.5
v 2.2 1.1 -1.6
v 2.2 1.2 -1.5
v 2.2 1.2 -1.6
v 2.3 0.1 -1.5
v 2.3 0.1 -1.6
v 2.3 0.2 -1.5
v 2.3 0.2 -1.6
v 2.3 0.3 -1.4
v 2.3 0.3 -1.5
v 2.3 0.4 -1.4
v 2.3 0.4 -1.5
v 2.3 1 -1.4
v 2.3 1 -1.5
v 2.3 1.1 -1.4
v 2.3 1.1 -1.5
v 2.4 0 -1.5
v 2.4 0 -1.6
v 2.4 0.1 -1.5
v 2.4 0.1 -1.6
v 2.4 0.3 -1.5
v 2.4 0.3 -1.6
v 2.4 0.4 -1.5
v 2.4 0.4 -1.6
v 2.4 0.5 -1.5
v 2.4 0.5 -1.6
v 2.4 0.5 -1.8
v 2.4 0.6 -1.5
v 2.4 0.6 -1.6
v 2.4 0.6 -1.7
v 2.4 0.7 -1.5
v 2.4 0.8 -1.5
v 2.4 0.8 -1.6
v 2.4 0.8 -1.7
v 2.4 0.8 -1.8
v 2.4 0.9 -1.5
v 2.4 0.9 -1.6
v 2.4 0.9 -1.7
v 2.4 0.9 -1.8
v 2.4 1 -1.5
v 2.4 1.1 -1.5
v 2.4 1.1 -1.6
v 2.6 0.3 -1.5
v 2.6 0.3 -1.6
v 2.6 0.4 -1.5
v 2.6 0.4 -1.6
v 2.6 0.5 -1.5
v 2.6 0.5 -1.6
v 2.6 0.9 -1.5
v 2.6 0.9 -1.6
v 2.6 1.1 -1.5
v 2.6 1.1 -1.6
v 2.7 0.6 -1.5
v 2.7 0.6 -1.6
v 2.7 0.7 -1.5
v 2.7 0.8 -1.5
v 2.7 0.8 -1.6
v 2.2 0.6 -1.5
v 2.2 0.6 -1.6
v 2.2 0.7 -1.5
v 2.2 0.7 -1.6
v 2.2 0.8 -1.5
v 2.2 0.8 -1.6
v 2.3 0.3 -1.5
v 2.3 0.3 -1.6
v 2.3 0.5 -1.5
v 2.3 0.5 -1.6
v 2.3 0.9 -1.5
v 2.3 0.9 -1.6
v 2.3 1 -1.5
v 2.3 1 -1.6
v 2.3 1.1 -1.5
v 2.3 1.1 -1.6
v 2.5 0 -1.5
v 2.5 0 -1.6
v 2.5 0.1 -1.5
v 2.5 0.1 -1.6
v 2.5 0.3 -1.5
v 2.5 0.3 -1.6
v 2.5 0.4 -1.5
v 2.5 0.4 -1.6
v 2.5 0.5 -1.5
v 2.5 0.5 -1.6
v 2.5 0.5 -1.8
v 2.5 0.6 -1.5
v 2.5 0.6 -1.6
v 2.5 0.6 -1.7
v 2.5 0.8 -1.5
v 2.5 0.8 -1.6
v 2.5 0.8 -1.7
v 2.5 0.8 -1.8
v 2.5 0.9 -1.5
v 2.5 0.9 -1.6
v 2.5 0.9 -1.7
v 2.5 0.9 -1.8
v 2.5 1.1 -1.5
v 2.5 1.1 -1.6
v 2.6 0.1 -1.5
v 2.6 0.1 -1.6
v 2.6 0.2 -1.5
v 2.6 0.2 -1.6
v 2.6 0.3 -1.4
v 2.6 0.3 -1.5
v 2.6 0.4 -1.4
v 2.6 0.4 -1.5
v 2.6 1 -1.4
v 2.6 1 -1.5
v 2.6 1.1 -1.4
v 2.6 1.1 -1.5
v 2.7 0.2 -1.5
v 2.7 0.2 -1.6
v 2.7 0.3 -1.5
v 2.7 0.3 -1.6
v 2.7 0.4 -1.4
v 2.7 0.4 -1.5
v 2.7 0.5 -1.4
v 2.7 0.5 -1.5
v 2.7 0.6 -1.4
v 2.7 0.6 -1.5
v 2.7 0.7 -1.4
v 2.7 0.7 -1.5
v 2.7 0.8 -1.4
v 2.7 0.8 -1.5
v 2.7 0.9 -1.4
v 2.7 0.9 -1.5
v 2.7 1 -1.4
v 2.7 1 -1.5
v 2.7 1.1 -1.5
v 2.7 1.1 -1.6
v 2.7 1.2 -1.5
v 2.7 1.2 -1.6
v 2.8 0.3 -1.5
v 2.8 0.3 -1.6
v 2.8 0.9 -1.5
v 2.8 0.9 -1.6
v 2.8 1 -1.5
v 2.8 1 -1.6
v 2.8 1.1 -1.5
v 2.8 1.1 -1.6
v 2.2 0.4 -1.4
v 2.2 0.5 -1.4
v 2.2 0.6 -1.4
v 2.2 0.8 -1.4
v 2.2 0.9 -1.4
v 2.2 1 -1.4
v 2.3 0.3 -1.4
v 2.3 0.4 -1.4
v 2.3 0.6 -1.4
v 2.3 0.7 -1.4
v 2.3 0.9 -1.4
v 2.3 1 -1.4
v 2.3 1.1 -1.4
v 2.4 0.3 -1.4
v 2.4 0.5 -1.4
v 2.4 0.6 -1.4
v 2.4 0.7 -1.4
v 2.4 0.8 -1.4
v 2.4 0.9 -1.4
v 2.4 1 -1.4
v 2.4 1.1 -1.4
v 2.5 0.3 -1.4
v 2.5 0.5 -1.4
v 2.5 0.6 -1.4
v 2.5 0.8 -1.4
v 2.5 0.9 -1.4
v 2.5 1.1 -1.4
v 2.6 0.3 -1.4
v 2.6 0.4 -1.4
v 2.6 0.7 -1.4
v 2.6 0.8 -1.4
v 2.6 1 -1.4
v 2.6 1.1 -1.4
v 2.7 0.4 -1.4
v 2.7 0.5 -1.4
v 2.7 0.6 -1.4
v 2.7 0.7 -1.4
v 2.7 0.8 -1.4
v 2.7 0.9 -1.4
v 2.7 1 -1.4
v 2.1 0.3 -1.5
v 2.1 0.6 -1.5
v 2.1 0.7 -1.5
v 2.1 1 -1.5
v 2.1 1.1 -1.5
v 2.2 0.2 -1.5
v 2.2 0.3 -1.5
v 2.2 0.4 -1.5
v 2.2 0.5 -1.5
v 2.2 0.6 -1.5
v 2.2 0.7 -1.5
v 2.2 0.8 -1.5
v 2.2 0.9 -1.5
v 2.2 1 -1.5
v 2.2 1.1 -1.5
v 2.2 1.2 -1.5
v 2.3 0.1 -1.5
v 2.3 0.2 -1.5
v 2.3 0.3 -1.5
v 2.3 0.4 -1.5
v 2.3 1 -1.5
v 2.3 1.1 -1.5
v 2.4 0 -1.5
v 2.4 0.1 -1.5
v 2.4 0.3 -1.5
v 2.4 1.1 -1.5
v 2.4 1.2 -1.5
v 2.5 0 -1.5
v 2.5 0.1 -1.5
v 2.5 0.2 -1.5
v 2.5 0.3 -1.5
v 2.5 1.1 -1.5
v 2.5 1.2 -1.5
v 2.6 0.1 -1.5
v 2.6 0.2 -1.5
v 2.6 0.3 -1.5
v 2.6 0.4 -1.5
v 2.6 1 -1.5
v 2.6 1.1 -1.5
v 2.7 0.2 -1.5
v 2.7 0.3 -1.5
v 2.7 0.4 -1.5
v 2.7 0.5 -1.5
v 2.7 0.6 -1.5
v 2.7 0.7 -1.5
v 2.7 0.8 -1.5
v 2.7 0.9 -1.5
v 2.7 1 -1.5
v 2.7 1.1 -1.5
v 2.7 1.2 -1.5
v 2.8 0.3 -1.5
v 2.8 0.9 -1.5
v 2.8 1 -1.5
v 2.8 1.1 -1.5
v 2.4 0.6 -1.7
v 2.4 0.8 -1.7
v 2.5 0.6 -1.7
v 2.5 0.8 -1.7
v 2.2 0.6 -1.5
v 2.2 0.7 -1.5
v 2.2 0.8 -1.5
v 2.3 0.3 -1.5
v 2.3 0.5 -1.5
v 2.3 0.6 -1.5
v 2.3 0.7 -1.5
v 2.3 0.9 -1.5
v 2.3 1 -1.5
v 2.3 1.1 -1.5
v 2.4 0.3 -1.5
v 2.4 0.4 -1.5
v 2.4 0.5 -1.5
v 2.4 0.6 -1.5
v 2.4 0.7 -1.5
v 2.4 0.8 -1.5
v 2.4 0.9 -1.5
v 2.4 1 -1.5
v 2.4 1.1 -1.5
v 2.5 0.3 -1.5
v 2.5 0.4 -1.5
v 2.5 0.5 -1.5
v 2.5 0.6 -1.5
v 2.5 0.8 -1.5
v 2.5 0.9 -1.5
v 2.5 1.1 -1.5
v 2.6 0.3 -1.5
v 2.6 0.4 -1.5
v 2.6 0.5 -1.5
v 2.6 0.7 -1.5
v 2.6 0.8 -1.5
v 2.6 0.9 -1.5
v 2.6 1.1 -1.5
v 2.7 0.6 -1.5
v 2.7 0.7 -1.5
v 2.7 0.8 -1.5
v 2.1 0.3 -1.6
v 2.1 0.6 -1.6
v 2.1 0.7 -1.6
v 2.1 1 -1.6
v 2.1 1.1 -1.6
v 2.2 0.2 -1.6
v 2.2 0.3 -1.6
v 2.2 0.6 -1.6
v 2.2 0.7 -1.6
v 2.2 0.8 -1.6
v 2.2 0.9 -1.6
v 2.2 1 -1.6
v 2.2 1.1 -1.6
v 2.2 1.2 -1.6
v 2.3 0.1 -1.6
v 2.3 0.2 -1.6
v 2.3 0.3 -1.6
v 2.3 0.5 -1.6
v 2.3 0.6 -1.6
v 2.3 0.9 -1.6
v 2.3 1 -1.6
v 2.3 1.1 -1.6
v 2.4 0 -1.6
v 2.4 0.1 -1.6
v 2.4 0.3 -1.6
v 2.4 0.4 -1.6
v 2.4 0.5 -1.6
v 2.4 0.6 -1.6
v 2.4 0.8 -1.6
v 2.4 0.9 -1.6
v 2.4 1.1 -1.6
v 2.4 1.2 -1.6
v 2.5 0 -1.6
v 2.5 0.1 -1.6
v 2.5 0.2 -1.6
v 2.5 0.3 -1.6
v 2.5 0.4 -1.6
v 2.5 0.5 -1.6
v 2.5 0.6 -1.6
v 2.5 0.8 -1.6
v 2.5 0.9 -1.6
v 2.5 1.1 -1.6
v 2.5 1.2 -1.6
v 2.6 0.1 -1.6
v 2.6 0.2 -1.6
v 2.6 0.3 -1.6
v 2.6 0.4 -1.6
v 2.6 0.5 -1.6
v 2.6 0.8 -1.6
v 2.6 0.9 -1.6
v 2.6 1.1 -1.6
v 2.7 0.2 -1.6
v 2.7 0.3 -1.6
v 2.7 0.4 -1.6
v 2.7 0.6 -1.6
v 2.7 0.8 -1.6
v 2.7 0.9 -1.6
v 2.7 1 -1.6
v 2.7 1.1 -1.6
v 2.7 1.2 -1.6
v 2.8 0.3 -1.6
v 2.8 0.9 -1.6
v 2.8 1 -1.6
v 2.8 1.1 -1.6
v 2.4 0.5 -1.8
v 2.4 0.8 -1.8
v 2.4 0.9 -1.8
v 2.5 0.5 -1.8
v 2.5 0.8 -1.8
v 2.5 0.9 -1.8
v 2.4 0 -1.5
v 2.5 0 -1.5
v 2.4 0 -1.6
v 2.5 0 -1.6
v 2.3 0.1 -1.5
v 2.4 0.1 -1.5
v 2.5 0.1 -1.5
v 2.6 0.1 -1.5
v 2.3 0.1 -1.6
v 2.4 0.1 -1.6
v 2.5 0.1 -1.6
v 2.6 0.1 -1.6
v 2.2 0.2 -1.5
v 2.3 0.2 -1.5
v 2.6 0.2 -1.5
v 2.7 0.2 -1.5
v 2.2 0.2 -1.6
v 2.3 0.2 -1.6
v 2.6 0.2 -1.6
v 2.7 0.2 -1.6
v 2.3 0.3 -1.4
v 2.4 0.3 -1.4
v 2.5 0.3 -1.4
v 2.6 0.3 -1.4
v 2.1 0.3 -1.5
v 2.2 0.3 -1.5
v 2.3 0.3 -1.5
v 2.4 0.3 -1.5
v 2.5 0.3 -1.5
v 2.6 0.3 -1.5
v 2.7 0.3 -1.5
v 2.8 0.3 -1.5
v 2.1 0.3 -1.6
v 2.2 0.3 -1.6
v 2.7 0.3 -1.6
v 2.8 0.3 -1.6
v 2.2 0.4 -1.4
v 2.3 0.4 -1.4
v 2.6 0.4 -1.4
v 2.7 0.4 -1.4
v 2.2 0.4 -1.5
v 2.3 0.4 -1.5
v 2.6 0.4 -1.5
v 2.7 0.4 -1.5
v 2.3 0.5 -1.5
v 2.4 0.5 -1.5
v 2.5 0.5 -1.5
v 2.6 0.5 -1.5
v 2.3 0.5 -1.6
v 2.4 0.5 -1.6
v 2.5 0.5 -1.6
v 2.6 0.5 -1.6
v 2.4 0.5 -1.8
v 2.5 0.5 -1.8
v 2.2 0.8 -1.5
v 2.4 0.8 -1.5
v 2.5 0.8 -1.5
v 2.6 0.8 -1.5
v 2.7 0.8 -1.5
v 2.2 0.8 -1.6
v 2.4 0.8 -1.6
v 2.5 0.8 -1.6
v 2.6 0.8 -1.6
v 2.7 0.8 -1.6
v 2.4 0.8 -1.7
v 2.5 0.8 -1.7
v 2.3 1.1 -1.5
v 2.4 1.1 -1.5
v 2.5 1.1 -1.5
v 2.6 1.1 -1.5
v 2.3 1.1 -1.6
v 2.4 1.1 -1.6
v 2.5 1.1 -1.6
v 2.6 1.1 -1.6
v 2.3 0.3 -1.5
v 2.4 0.3 -1.5
v 2.5 0.3 -1.5
v 2.6 0.3 -1.5
v 2.3 0.3 -1.6
v 2.4 0.3 -1.6
v 2.5 0.3 -1.6
v 2.6 0.3 -1.6
v 2.2 0.6 -1.5
v 2.3 0.6 -1.5
v 2.4 0.6 -1.5
v 2.5 0.6 -1.5
v 2.7 0.6 -1.5
v 2.2 0.6 -1.6
v 2.3 0.6 -1.6
v 2.4 0.6 -1.6
v 2.5 0.6 -1.6
v 2.7 0.6 -1.6
v 2.4 0.6 -1.7
v 2.5 0.6 -1.7
v 2.3 0.9 -1.5
v 2.4 0.9 -1.5
v 2.5 0.9 -1.5
v 2.6 0.9 -1.5
v 2.3 0.9 -1.6
v 2.4 0.9 -1.6
v 2.5 0.9 -1.6
v 2.6 0.9 -1.6
v 2.4 0.9 -1.7
v 2.5 0.9 -1.7
v 2.4 0.9 -1.8
v 2.5 0.9 -1.8
v 2.2 1 -1.4
v 2.3 1 -1.4
v 2.6 1 -1.4
v 2.7 1 -1.4
v 2.2 1 -1.5
v 2.3 1 -1.5
v 2.6 1 -1.5
v 2.7 1 -1.5
v 2.3 1.1 -1.4
v 2.4 1.1 -1.4
v 2.5 1.1 -1.4
v 2.6 1.1 -1.4
v 2.1 1.1 -1.5
v 2.2 1.1 -1.5
v 2.3 1.1 -1.5
v 2.4 1.1 -1.5
v 2.5 1.1 -1.5
v 2.6 1.1 -1.5
v 2.7 1.1 -1.5
v 2.8 1.1 -1.5
v 2.1 1.1 -1.6
v 2.2 1.1 -1.6
v 2.7 1.1 -1.6
v 2.8 1.1 -1.6
v 2.2 1.2 -1.5
v 2.4 1.2 -1.5
v 2.5 1.2 -1.5
v 2.7 1.2 -1.5
v 2.2 1.2 -1.6
v 2.4 1.2 -1.6
v 2.5 1.2 -1.6
v 2.7 1.2 -1.6

# faces
f 3/2/1 2/2/1 1/2/1
f 4/2/1 2/2/1 3/2/1
f 5/1/1 4/1/1 3/1/1
f 6/1/1 4/1/1 5/1/1
f 7/2/1 6/2/1 5/2/1
f 8/2/1 6/2/1 7/2/1
f 9/1/1 8/1/1 7/1/1
f 10/1/1 8/1/1 9/1/1
f 13/2/1 12/2/1 11/2/1
f 14/2/1 12/2/1 13/2/1
f 17/4/1 16/4/1 15/4/1
f 18/4/1 16/4/1 17/4/1
f 19/3/1 18/3/1 17/3/1
f 20/3/1 18/3/1 19/3/1
f 21/4/1 20/4/1 19/4/1
f 22/4/1 21/4/1 19/4/1
f 23/4/1 21/4/1 22/4/1
f 24/3/1 23/3/1 22/3/1
f 25/3/1 23/3/1 24/3/1
f 26/1/1 25/1/1 24/1/1
f 27/1/1 25/1/1 26/1/1
f 30/2/1 29/2/1 28/2/1
f 31/2/1 29/2/1 30/2/1
f 34/2/1 33/2/1 32/2/1
f 35/2/1 33/2/1 34/2/1
f 38/4/1 37/4/1 36/4/1
f 39/4/1 37/4/1 38/4/1
f 42/1/1 41/1/1 40/1/1
f 43/1/1 41/1/1 42/1/1
f 46/1/1 45/1/1 44/1/1
f 47/1/1 45/1/1 46/1/1
f 50/4/1 49/4/1 48/4/1
f 51/4/1 49/4/1 50/4/1
f 52/1/1 51/1/1 50/1/1
f 53/1/1 51/1/1 52/1/1
f 56/4/1 54/4/1 53/4/1
f 57/4/1 54/4/1 56/4/1
f 58/4/1 56/4/1 55/4/1
f 59/4/1 56/4/1 58/4/1
f 60/4/1 56/4/1 59/4/1
f 61/4/1 54/4/1 57/4/1
f 62/4/1 54/4/1 61/4/1
f 64/4/1 61/4/1 60/4/1
f 65/1/1 62/1/1 61/1/1
f 65/4/1 61/4/1 64/4/1
f 66/1/1 62/1/1 65/1/1
f 67/4/1 64/4/1 63/4/1
f 68/4/1 64/4/1 67/4/1
f 69/4/1 64/4/1 68/4/1
f 72/1/1 71/1/1 70/1/1
f 73/1/1 71/1/1 72/1/1
f 74/4/1 73/4/1 72/4/1
f 75/4/1 73/4/1 74/4/1
f 78/4/1 77/4/1 76/4/1
f 79/4/1 77/4/1 78/4/1
f 82/2/1 81/2/1 80/2/1
f 83/2/1 81/2/1 82/2/1
f 84/2/1 81/2/1 83/2/1
f 85/1/2 86/1/2 87/1/2
f 87/1/2 86/1/2 88/1/2
f 87/2/2 88/2/2 89/2/2
f 89/2/2 88/2/2 90/2/2
f 91/4/2 92/4/2 93/4/2
f 93/4/2 92/4/2 94/4/2
f 95/1/2 96/1/2 97/1/2
f 97/1/2 96/1/2 98/1/2
f 97/4/2 98/4/2 99/4/2
f 99/4/2 98/4/2 100/4/2
f 101/1/2 102/1/2 103/1/2
f 103/1/2 102/1/2 104/1/2
f 105/4/2 106/4/2 107/4/2
f 107/4/2 106/4/2 108/4/2
f 107/1/2 108/1/2 109/1/2
f 109/1/2 108/1/2 110/1/2
f 110/4/2 111/4/2 113/4/2
f 113/4/2 111/4/2 114/4/2
f 112/4/2 113/4/2 115/4/2
f 115/4/2 113/4/2 116/4/2
f 114/4/2 111/4/2 117/4/2
f 117/4/2 111/4/2 118/4/2
f 116/4/2 117/4/2 120/4/2
f 117/1/2 118/1/2 121/1/2
f 120/4/2 117/4/2 121/4/2
f 121/1/2 118/1/2 122/1/2
f 119/4/2 120/4/2 123/4/2
f 123/4/2 120/4/2 124/4/2
f 125/1/2 126/1/2 127/1/2
f 127/1/2 126/1/2 128/1/2
f 129/4/2 130/4/2 131/4/2
f 131/4/2 130/4/2 132/4/2
f 133/4/2 134/4/2 135/4/2
f 135/4/2 134/4/2 136/4/2
f 137/2/2 138/2/2 139/2/2
f 139/2/2 138/2/2 140/2/2
f 141/4/2 142/4/2 143/4/2
f 143/4/2 142/4/2 144/4/2
f 143/3/2 144/3/2 145/3/2
f 145/3/2 144/3/2 146/3/2
f 145/4/2 146/4/2 147/4/2
f 147/4/2 146/4/2 148/4/2
f 147/1/2 148/1/2 149/1/2
f 149/1/2 148/1/2 150/1/2
f 149/3/2 150/3/2 151/3/2
f 151/3/2 150/3/2 152/3/2
f 151/4/2 152/4/2 153/4/2
f 153/4/2 152/4/2 154/4/2
f 155/2/2 156/2/2 157/2/2
f 157/2/2 156/2/2 158/2/2
f 159/2/2 160/2/2 161/2/2
f 161/2/2 160/2/2 162/2/2
f 161/1/2 162/1/2 163/1/2
f 163/1/2 162/1/2 164/1/2
f 163/2/2 164/2/2 165/2/2
f 165/2/2 164/2/2 166/2/2
f 174/4/3 168/4/3 167/4/3
f 175/3/3 169/3/3 168/3/3
f 175/4/3 170/4/3 169/4/3
f 176/4/3 170/4/3 175/4/3
f 177/1/3 172/1/3 171/1/3
f 177/3/3 171/3/3 170/3/3
f 178/1/3 172/1/3 177/1/3
f 180/4/3 174/4/3 173/4/3
f 181/4/3 168/4/3 174/4/3
f 181/4/3 174/4/3 180/4/3
f 181/3/3 175/3/3 168/3/3
f 182/1/3 176/1/3 175/1/3
f 182/3/3 175/3/3 181/3/3
f 183/4/3 170/4/3 176/4/3
f 183/1/3 176/1/3 182/1/3
f 184/3/3 177/3/3 170/3/3
f 184/4/3 170/4/3 183/4/3
f 185/4/3 178/4/3 177/4/3
f 185/3/3 177/3/3 184/3/3
f 186/1/3 179/1/3 178/1/3
f 186/4/3 178/4/3 185/4/3
f 187/1/3 179/1/3 186/1/3
f 188/3/3 182/3/3 181/3/3
f 188/3/3 185/3/3 184/3/3
f 188/3/3 187/3/3 186/3/3
f 188/3/3 186/3/3 185/3/3
f 188/3/3 183/3/3 182/3/3
f 188/3/3 184/3/3 183/3/3
f 188/3/3 181/3/3 180/3/3
f 189/3/3 187/3/3 188/3/3
f 190/3/3 187/3/3 189/3/3
f 191/3/3 187/3/3 190/3/3
f 192/3/3 187/3/3 191/3/3
f 193/3/3 187/3/3 192/3/3
f 194/4/3 189/4/3 188/4/3
f 195/4/3 189/4/3 194/4/3
f 196/4/3 191/4/3 190/4/3
f 197/3/3 192/3/3 191/3/3
f 197/4/3 191/4/3 196/4/3
f 198/4/3 193/4/3 192/4/3
f 199/4/3 193/4/3 198/4/3
f 200/4/3 189/4/3 195/4/3
f 201/3/3 190/3/3 189/3/3
f 201/4/3 189/4/3 200/4/3
f 202/4/3 196/4/3 190/4/3
f 202/3/3 190/3/3 201/3/3
f 203/1/3 197/1/3 196/1/3
f 203/4/3 196/4/3 202/4/3
f 204/3/3 192/3/3 197/3/3
f 204/1/3 197/1/3 203/1/3
f 205/4/3 198/4/3 192/4/3
f 205/3/3 192/3/3 204/3/3
f 206/4/3 198/4/3 205/4/3
f 213/2/3 208/2/3 207/2/3
f 214/2/3 208/2/3 213/2/3
f 215/2/3 208/2/3 214/2/3
f 216/1/3 209/1/3 208/1/3
f 216/2/3 208/2/3 215/2/3
f 217/2/3 210/2/3 209/2/3
f 217/1/3 209/1/3 216/1/3
f 218/2/3 210/2/3 217/2/3
f 219/2/3 210/2/3 218/2/3
f 220/1/3 211/1/3 210/1/3
f 220/2/3 210/2/3 219/2/3
f 221/1/3 211/1/3 220/1/3
f 224/2/3 213/2/3 212/2/3
f 225/4/3 214/4/3 213/4/3
f 225/2/3 213/2/3 224/2/3
f 226/4/3 214/4/3 225/4/3
f 227/4/3 221/4/3 220/4/3
f 228/2/3 222/2/3 221/2/3
f 228/4/3 221/4/3 227/4/3
f 230/2/3 224/2/3 223/2/3
f 230/2/3 225/2/3 224/2/3
f 231/2/3 225/2/3 230/2/3
f 232/2/3 222/2/3 228/2/3
f 233/2/3 222/2/3 232/2/3
f 234/1/3 230/1/3 229/1/3
f 235/2/3 231/2/3 230/2/3
f 235/1/3 230/1/3 234/1/3
f 236/2/3 231/2/3 235/2/3
f 237/2/3 231/2/3 236/2/3
f 238/1/3 233/1/3 232/1/3
f 239/1/3 233/1/3 238/1/3
f 240/1/3 236/1/3 235/1/3
f 241/2/3 237/2/3 236/2/3
f 241/1/3 236/1/3 240/1/3
f 242/2/3 237/2/3 241/2/3
f 245/2/3 239/2/3 238/2/3
f 246/2/3 242/2/3 241/2/3
f 247/1/3 243/1/3 242/1/3
f 247/2/3 242/2/3 246/2/3
f 248/1/3 243/1/3 247/1/3
f 254/4/3 245/4/3 244/4/3
f 255/2/3 239/2/3 245/2/3
f 255/4/3 245/4/3 254/4/3
f 256/2/3 239/2/3 255/2/3
f 257/2/3 253/2/3 252/2/3
f 257/2/3 248/2/3 247/2/3
f 257/2/3 249/2/3 248/2/3
f 257/2/3 252/2/3 251/2/3
f 257/2/3 251/2/3 250/2/3
f 257/2/3 250/2/3 249/2/3
f 258/1/3 254/1/3 253/1/3
f 258/2/3 253/2/3 257/2/3
f 259/2/3 255/2/3 254/2/3
f 259/1/3 254/1/3 258/1/3
f 260/2/3 255/2/3 259/2/3
f 263/4/3 262/4/3 261/4/3
f 264/4/3 262/4/3 263/4/3
f 265/4/4 266/4/4 270/4/4
f 266/4/4 267/4/4 270/4/4
f 270/4/4 267/4/4 271/4/4
f 268/4/4 269/4/4 275/4/4
f 275/4/4 269/4/4 276/4/4
f 276/4/4 269/4/4 277/4/4
f 270/1/4 271/1/4 278/1/4
f 271/4/4 267/4/4 279/4/4
f 278/1/4 271/1/4 279/1/4
f 279/4/4 267/4/4 280/4/4
f 272/4/4 273/4/4 281/4/4
f 273/1/4 274/1/4 282/1/4
f 281/4/4 273/4/4 282/4/4
f 282/1/4 274/1/4 283/1/4
f 284/4/4 285/4/4 291/4/4
f 285/4/4 286/4/4 291/4/4
f 291/4/4 286/4/4 292/4/4
f 292/4/4 286/4/4 293/4/4
f 287/4/4 288/4/4 294/4/4
f 294/4/4 288/4/4 295/4/4
f 289/4/4 290/4/4 296/4/4
f 296/4/4 290/4/4 297/4/4
f 287/4/4 294/4/4 298/4/4
f 294/1/4 295/1/4 299/1/4
f 298/4/4 294/4/4 299/4/4
f 299/1/4 295/1/4 300/1/4
f 301/2/4 302/2/4 307/2/4
f 302/1/4 303/1/4 308/1/4
f 307/2/4 302/2/4 308/2/4
f 303/2/4 304/2/4 309/2/4
f 308/1/4 303/1/4 309/1/4
f 309/2/4 304/2/4 310/2/4
f 310/2/4 304/2/4 311/2/4
f 304/1/4 305/1/4 312/1/4
f 311/2/4 304/2/4 312/2/4
f 312/1/4 305/1/4 313/1/4
f 306/2/4 307/2/4 316/2/4
f 307/4/4 308/4/4 317/4/4
f 316/2/4 307/2/4 317/2/4
f 317/4/4 308/4/4 318/4/4
f 318/4/4 308/4/4 319/4/4
f 310/4/4 311/4/4 320/4/4
f 311/1/4 312/1/4 320/1/4
f 312/4/4 313/4/4 321/4/4
f 320/1/4 312/1/4 321/1/4
f 313/2/4 314/2/4 322/2/4
f 321/4/4 313/4/4 322/4/4
f 315/2/4 316/2/4 324/2/4
f 316/2/4 317/2/4 324/2/4
f 324/2/4 317/2/4 325/2/4
f 318/1/4 319/1/4 327/1/4
f 327/1/4 319/1/4 328/1/4
f 310/4/4 320/4/4 329/4/4
f 329/4/4 320/4/4 330/4/4
f 322/2/4 314/2/4 331/2/4
f 331/2/4 314/2/4 332/2/4
f 323/1/4 324/1/4 333/1/4
f 324/2/4 325/2/4 334/2/4
f 333/1/4 324/1/4 334/1/4
f 334/2/4 325/2/4 335/2/4
f 325/4/4 326/4/4 336/4/4
f 335/2/4 325/2/4 336/2/4
f 326/1/4 327/1/4 337/1/4
f 336/4/4 326/4/4 337/4/4
f 337/1/4 327/1/4 338/1/4
f 328/4/4 329/4/4 339/4/4
f 339/4/4 329/4/4 340/4/4
f 330/4/4 331/4/4 341/4/4
f 331/1/4 332/1/4 342/1/4
f 341/4/4 331/4/4 342/4/4
f 342/1/4 332/1/4 343/1/4
f 334/1/4 335/1/4 344/1/4
f 335/2/4 336/2/4 345/2/4
f 344/1/4 335/1/4 345/1/4
f 345/2/4 336/2/4 346/2/4
f 338/4/4 339/4/4 348/4/4
f 340/1/4 341/1/4 349/1/4
f 349/1/4 341/1/4 350/1/4
f 342/2/4 343/2/4 351/2/4
f 345/2/4 346/2/4 352/2/4
f 346/1/4 347/1/4 353/1/4
f 352/2/4 346/2/4 353/2/4
f 347/4/4 348/4/4 354/4/4
f 353/1/4 347/1/4 354/1/4
f 348/4/4 339/4/4 355/4/4
f 354/4/4 348/4/4 355/4/4
f 349/4/4 350/4/4 356/4/4
f 350/4/4 351/4/4 356/4/4
f 356/4/4 351/4/4 357/4/4
f 357/4/4 351/4/4 358/4/4
f 351/2/4 343/2/4 359/2/4
f 358/4/4 351/4/4 359/4/4
f 359/2/4 343/2/4 360/2/4
f 354/2/4 355/2/4 361/2/4
f 353/2/4 354/2/4 361/2/4
f 356/2/4 357/2/4 361/2/4
f 355/2/4 356/2/4 361/2/4
f 357/1/4 358/1/4 362/1/4
f 361/2/4 357/2/4 362/2/4
f 358/2/4 359/2/4 363/2/4
f 362/1/4 358/1/4 363/1/4
f 363/2/4 359/2/4 364/2/4
f 365/4/4 366/4/4 368/4/4
f 366/1/4 367/1/4 369/1/4
f 368/4/4 366/4/4 369/4/4
f 369/1/4 367/1/4 370/1/4
f 373/1/5 372/1/5 371/1/5
f 374/1/5 372/1/5 373/1/5
f 379/2/5 376/2/5 375/2/5
f 380/2/5 376/2/5 379/2/5
f 381/1/5 378/1/5 377/1/5
f 382/1/5 378/1/5 381/1/5
f 387/2/5 384/2/5 383/2/5
f 388/2/5 384/2/5 387/2/5
f 389/2/5 386/2/5 385/2/5
f 390/2/5 386/2/5 389/2/5
f 397/4/5 392/4/5 391/4/5
f 398/3/5 393/3/5 392/3/5
f 398/4/5 392/4/5 397/4/5
f 399/4/5 394/4/5 393/4/5
f 399/3/5 393/3/5 398/3/5
f 400/4/5 394/4/5 399/4/5
f 403/2/5 396/2/5 395/2/5
f 404/2/5 396/2/5 403/2/5
f 405/2/5 402/2/5 401/2/5
f 406/2/5 402/2/5 405/2/5
f 411/4/5 408/4/5 407/4/5
f 412/4/5 408/4/5 411/4/5
f 413/4/5 410/4/5 409/4/5
f 414/4/5 410/4/5 413/4/5
f 419/1/5 416/1/5 415/1/5
f 420/1/5 416/1/5 419/1/5
f 421/4/5 418/4/5 417/4/5
f 422/4/5 418/4/5 421/4/5
f 423/4/5 421/4/5 420/4/5
f 424/4/5 421/4/5 423/4/5
f 430/4/5 426/4/5 425/4/5
f 431/4/5 426/4/5 430/4/5
f 432/1/5 428/1/5 427/1/5
f 433/4/5 429/4/5 428/4/5
f 433/1/5 428/1/5 432/1/5
f 434/4/5 429/4/5 433/4/5
f 435/4/5 432/4/5 431/4/5
f 436/4/5 432/4/5 435/4/5
f 441/2/5 438/2/5 437/2/5
f 442/2/5 438/2/5 441/2/5
f 443/2/5 440/2/5 439/2/5
f 444/2/5 440/2/5 443/2/5
f 445/2/6 446/2/6 449/2/6
f 449/2/6 446/2/6 450/2/6
f 447/2/6 448/2/6 451/2/6
f 451/2/6 448/2/6 452/2/6
f 453/4/6 454/4/6 458/4/6
f 454/1/6 455/1/6 459/1/6
f 458/4/6 454/4/6 459/4/6
f 459/1/6 455/1/6 460/1/6
f 456/4/6 457/4/6 461/4/6
f 461/4/6 457/4/6 462/4/6
f 460/4/6 461/4/6 463/4/6
f 463/4/6 461/4/6 464/4/6
f 465/4/6 466/4/6 469/4/6
f 469/4/6 466/4/6 470/4/6
f 467/1/6 468/1/6 471/1/6
f 471/1/6 468/1/6 472/1/6
f 470/4/6 471/4/6 473/4/6
f 473/4/6 471/4/6 474/4/6
f 473/1/6 474/1/6 475/1/6
f 475/1/6 474/1/6 476/1/6
f 477/1/6 478/1/6 481/1/6
f 481/1/6 478/1/6 482/1/6
f 479/4/6 480/4/6 483/4/6
f 483/4/6 480/4/6 484/4/6
f 485/1/6 486/1/6 491/1/6
f 486/3/6 487/3/6 492/3/6
f 491/1/6 486/1/6 492/1/6
f 487/4/6 488/4/6 493/4/6
f 492/3/6 487/3/6 493/3/6
f 493/4/6 488/4/6 494/4/6
f 489/1/6 490/1/6 497/1/6
f 497/1/6 490/1/6 498/1/6
f 495/2/6 496/2/6 499/2/6
f 499/2/6 496/2/6 500/2/6
f 501/2/6 502/2/6 505/2/6
f 502/1/6 503/1/6 506/1/6
f 505/2/6 502/2/6 506/2/6
f 503/2/6 504/2/6 507/2/6
f 506/1/6 503/1/6 507/1/6
f 507/2/6 504/2/6 508/2/6
