# MagicaVoxel @ Ephtracy

# group
o 

# material
mtllib Object's-7.mtl
usemtl palette

# normals
vn -1 0 0
vn 1 0 0
vn 0 0 1
vn 0 0 -1
vn 0 -1 0
vn 0 1 0

# texcoords
vt 0.939453 0.5
vt 0.970703 0.5

# verts
v 1.3 0.1 -1.4
v 1.3 0.1 -1.5
v 1.3 0.2 -1.4
v 1.3 0.2 -1.5
v 1.3 0.5 -1.4
v 1.3 0.5 -1.5
v 1.3 0.6 -1.4
v 1.3 0.6 -1.5
v 1.4 0 -1.4
v 1.4 0 -1.5
v 1.4 0.1 -1.4
v 1.4 0.1 -1.5
v 1.4 0.6 -1.4
v 1.4 0.6 -1.5
v 1.4 0.7 -1.4
v 1.4 0.7 -1.5
v 1.6 0.1 -1.4
v 1.6 0.1 -1.5
v 1.6 0.2 -1.4
v 1.6 0.2 -1.5
v 1.6 0.3 -1.4
v 1.6 0.3 -1.5
v 1.6 0.4 -1.4
v 1.6 0.4 -1.5
v 1.6 0.5 -1.4
v 1.6 0.5 -1.5
v 1.6 0.6 -1.4
v 1.6 0.6 -1.5
v 1.7 0.2 -1.4
v 1.7 0.2 -1.5
v 1.7 0.3 -1.4
v 1.7 0.3 -1.5
v 1.7 0.4 -1.4
v 1.7 0.4 -1.5
v 1.7 0.5 -1.4
v 1.7 0.5 -1.5
v 1.4 0.2 -1.4
v 1.4 0.2 -1.5
v 1.4 0.3 -1.4
v 1.4 0.3 -1.5
v 1.4 0.4 -1.4
v 1.4 0.4 -1.5
v 1.4 0.5 -1.4
v 1.4 0.5 -1.5
v 1.5 0.1 -1.4
v 1.5 0.1 -1.5
v 1.5 0.2 -1.4
v 1.5 0.2 -1.5
v 1.5 0.3 -1.4
v 1.5 0.3 -1.5
v 1.5 0.4 -1.4
v 1.5 0.4 -1.5
v 1.5 0.5 -1.4
v 1.5 0.5 -1.5
v 1.5 0.6 -1.4
v 1.5 0.6 -1.5
v 1.7 0 -1.4
v 1.7 0 -1.5
v 1.7 0.1 -1.4
v 1.7 0.1 -1.5
v 1.7 0.6 -1.4
v 1.7 0.6 -1.5
v 1.7 0.7 -1.4
v 1.7 0.7 -1.5
v 1.8 0.1 -1.4
v 1.8 0.1 -1.5
v 1.8 0.4 -1.4
v 1.8 0.4 -1.5
v 1.8 0.5 -1.4
v 1.8 0.5 -1.5
v 1.8 0.6 -1.4
v 1.8 0.6 -1.5
v 1.3 0.1 -1.4
v 1.3 0.2 -1.4
v 1.3 0.5 -1.4
v 1.3 0.6 -1.4
v 1.4 0 -1.4
v 1.4 0.1 -1.4
v 1.4 0.2 -1.4
v 1.4 0.3 -1.4
v 1.4 0.4 -1.4
v 1.4 0.5 -1.4
v 1.4 0.6 -1.4
v 1.4 0.7 -1.4
v 1.5 0.1 -1.4
v 1.5 0.2 -1.4
v 1.5 0.3 -1.4
v 1.5 0.4 -1.4
v 1.5 0.5 -1.4
v 1.5 0.6 -1.4
v 1.5 0.7 -1.4
v 1.6 0 -1.4
v 1.6 0.1 -1.4
v 1.6 0.2 -1.4
v 1.6 0.3 -1.4
v 1.6 0.4 -1.4
v 1.6 0.5 -1.4
v 1.6 0.6 -1.4
v 1.6 0.7 -1.4
v 1.7 0 -1.4
v 1.7 0.1 -1.4
v 1.7 0.2 -1.4
v 1.7 0.3 -1.4
v 1.7 0.4 -1.4
v 1.7 0.5 -1.4
v 1.7 0.6 -1.4
v 1.7 0.7 -1.4
v 1.8 0.1 -1.4
v 1.8 0.4 -1.4
v 1.8 0.5 -1.4
v 1.8 0.6 -1.4
v 1.3 0.1 -1.5
v 1.3 0.2 -1.5
v 1.3 0.5 -1.5
v 1.3 0.6 -1.5
v 1.4 0 -1.5
v 1.4 0.1 -1.5
v 1.4 0.2 -1.5
v 1.4 0.3 -1.5
v 1.4 0.4 -1.5
v 1.4 0.5 -1.5
v 1.4 0.6 -1.5
v 1.4 0.7 -1.5
v 1.5 0.1 -1.5
v 1.5 0.2 -1.5
v 1.5 0.3 -1.5
v 1.5 0.4 -1.5
v 1.5 0.5 -1.5
v 1.5 0.6 -1.5
v 1.5 0.7 -1.5
v 1.6 0 -1.5
v 1.6 0.1 -1.5
v 1.6 0.2 -1.5
v 1.6 0.3 -1.5
v 1.6 0.4 -1.5
v 1.6 0.5 -1.5
v 1.6 0.6 -1.5
v 1.6 0.7 -1.5
v 1.7 0 -1.5
v 1.7 0.1 -1.5
v 1.7 0.2 -1.5
v 1.7 0.3 -1.5
v 1.7 0.4 -1.5
v 1.7 0.5 -1.5
v 1.7 0.6 -1.5
v 1.7 0.7 -1.5
v 1.8 0.1 -1.5
v 1.8 0.4 -1.5
v 1.8 0.5 -1.5
v 1.8 0.6 -1.5
v 1.4 0 -1.4
v 1.6 0 -1.4
v 1.7 0 -1.4
v 1.4 0 -1.5
v 1.6 0 -1.5
v 1.7 0 -1.5
v 1.3 0.1 -1.4
v 1.4 0.1 -1.4
v 1.7 0.1 -1.4
v 1.8 0.1 -1.4
v 1.3 0.1 -1.5
v 1.4 0.1 -1.5
v 1.7 0.1 -1.5
v 1.8 0.1 -1.5
v 1.4 0.3 -1.4
v 1.5 0.3 -1.4
v 1.6 0.3 -1.4
v 1.7 0.3 -1.4
v 1.4 0.3 -1.5
v 1.5 0.3 -1.5
v 1.6 0.3 -1.5
v 1.7 0.3 -1.5
v 1.4 0.5 -1.4
v 1.5 0.5 -1.4
v 1.6 0.5 -1.4
v 1.7 0.5 -1.4
v 1.4 0.5 -1.5
v 1.5 0.5 -1.5
v 1.6 0.5 -1.5
v 1.7 0.5 -1.5
v 1.5 0.6 -1.4
v 1.6 0.6 -1.4
v 1.5 0.6 -1.5
v 1.6 0.6 -1.5
v 1.5 0.1 -1.4
v 1.6 0.1 -1.4
v 1.5 0.1 -1.5
v 1.6 0.1 -1.5
v 1.4 0.2 -1.4
v 1.5 0.2 -1.4
v 1.6 0.2 -1.4
v 1.7 0.2 -1.4
v 1.4 0.2 -1.5
v 1.5 0.2 -1.5
v 1.6 0.2 -1.5
v 1.7 0.2 -1.5
v 1.4 0.4 -1.4
v 1.5 0.4 -1.4
v 1.6 0.4 -1.4
v 1.7 0.4 -1.4
v 1.4 0.4 -1.5
v 1.5 0.4 -1.5
v 1.6 0.4 -1.5
v 1.7 0.4 -1.5
v 1.3 0.6 -1.4
v 1.4 0.6 -1.4
v 1.7 0.6 -1.4
v 1.8 0.6 -1.4
v 1.3 0.6 -1.5
v 1.4 0.6 -1.5
v 1.7 0.6 -1.5
v 1.8 0.6 -1.5
v 1.4 0.7 -1.4
v 1.5 0.7 -1.4
v 1.6 0.7 -1.4
v 1.7 0.7 -1.4
v 1.4 0.7 -1.5
v 1.5 0.7 -1.5
v 1.6 0.7 -1.5
v 1.7 0.7 -1.5

# faces
f 3/1/1 2/1/1 1/1/1
f 4/1/1 2/1/1 3/1/1
f 5/2/1 4/2/1 3/2/1
f 6/2/1 4/2/1 5/2/1
f 7/1/1 6/1/1 5/1/1
f 8/1/1 6/1/1 7/1/1
f 11/2/1 10/2/1 9/2/1
f 12/2/1 10/2/1 11/2/1
f 15/2/1 14/2/1 13/2/1
f 16/2/1 14/2/1 15/2/1
f 19/2/1 18/2/1 17/2/1
f 20/2/1 18/2/1 19/2/1
f 23/2/1 22/2/1 21/2/1
f 24/2/1 22/2/1 23/2/1
f 27/2/1 26/2/1 25/2/1
f 28/2/1 26/2/1 27/2/1
f 31/2/1 30/2/1 29/2/1
f 32/2/1 30/2/1 31/2/1
f 35/1/1 34/1/1 33/1/1
f 36/1/1 34/1/1 35/1/1
f 37/2/2 38/2/2 39/2/2
f 39/2/2 38/2/2 40/2/2
f 41/2/2 42/2/2 43/2/2
f 43/2/2 42/2/2 44/2/2
f 45/2/2 46/2/2 47/2/2
f 47/2/2 46/2/2 48/2/2
f 49/1/2 50/1/2 51/1/2
f 51/1/2 50/1/2 52/1/2
f 53/2/2 54/2/2 55/2/2
f 55/2/2 54/2/2 56/2/2
f 57/1/2 58/1/2 59/1/2
f 59/1/2 58/1/2 60/1/2
f 61/2/2 62/2/2 63/2/2
f 63/2/2 62/2/2 64/2/2
f 65/2/2 66/2/2 67/2/2
f 67/2/2 66/2/2 68/2/2
f 67/1/2 68/1/2 69/1/2
f 69/1/2 68/1/2 70/1/2
f 69/2/2 70/2/2 71/2/2
f 71/2/2 70/2/2 72/2/2
f 78/1/3 74/1/3 73/1/3
f 79/2/3 75/2/3 74/2/3
f 79/1/3 74/1/3 78/1/3
f 80/2/3 75/2/3 79/2/3
f 81/2/3 75/2/3 80/2/3
f 82/1/3 76/1/3 75/1/3
f 82/2/3 75/2/3 81/2/3
f 83/1/3 76/1/3 82/1/3
f 85/2/3 78/2/3 77/2/3
f 85/2/3 79/2/3 78/2/3
f 86/2/3 79/2/3 85/2/3
f 87/1/3 81/1/3 80/1/3
f 88/1/3 81/1/3 87/1/3
f 89/2/3 84/2/3 83/2/3
f 89/2/3 83/2/3 82/2/3
f 90/2/3 84/2/3 89/2/3
f 91/2/3 84/2/3 90/2/3
f 92/2/3 85/2/3 77/2/3
f 93/2/3 85/2/3 92/2/3
f 98/1/3 91/1/3 90/1/3
f 99/1/3 91/1/3 98/1/3
f 100/1/3 93/1/3 92/1/3
f 101/2/3 94/2/3 93/2/3
f 101/1/3 93/1/3 100/1/3
f 102/2/3 94/2/3 101/2/3
f 103/2/3 96/2/3 95/2/3
f 104/2/3 96/2/3 103/2/3
f 105/2/3 98/2/3 97/2/3
f 105/2/3 99/2/3 98/2/3
f 106/2/3 99/2/3 105/2/3
f 107/2/3 99/2/3 106/2/3
f 108/2/3 102/2/3 101/2/3
f 108/2/3 104/2/3 103/2/3
f 108/2/3 103/2/3 102/2/3
f 109/1/3 105/1/3 104/1/3
f 109/2/3 104/2/3 108/2/3
f 110/2/3 106/2/3 105/2/3
f 110/1/3 105/1/3 109/1/3
f 111/2/3 106/2/3 110/2/3
f 112/1/4 113/1/4 117/1/4
f 113/2/4 114/2/4 118/2/4
f 117/1/4 113/1/4 118/1/4
f 118/2/4 114/2/4 119/2/4
f 119/2/4 114/2/4 120/2/4
f 114/1/4 115/1/4 121/1/4
f 120/2/4 114/2/4 121/2/4
f 121/1/4 115/1/4 122/1/4
f 116/2/4 117/2/4 124/2/4
f 117/2/4 118/2/4 124/2/4
f 124/2/4 118/2/4 125/2/4
f 119/1/4 120/1/4 126/1/4
f 126/1/4 120/1/4 127/1/4
f 122/2/4 123/2/4 128/2/4
f 121/2/4 122/2/4 128/2/4
f 128/2/4 123/2/4 129/2/4
f 129/2/4 123/2/4 130/2/4
f 116/2/4 124/2/4 131/2/4
f 131/2/4 124/2/4 132/2/4
f 129/1/4 130/1/4 137/1/4
f 137/1/4 130/1/4 138/1/4
f 131/1/4 132/1/4 139/1/4
f 132/2/4 133/2/4 140/2/4
f 139/1/4 132/1/4 140/1/4
f 140/2/4 133/2/4 141/2/4
f 134/2/4 135/2/4 142/2/4
f 142/2/4 135/2/4 143/2/4
f 136/2/4 137/2/4 144/2/4
f 137/2/4 138/2/4 144/2/4
f 144/2/4 138/2/4 145/2/4
f 145/2/4 138/2/4 146/2/4
f 140/2/4 141/2/4 147/2/4
f 142/2/4 143/2/4 147/2/4
f 141/2/4 142/2/4 147/2/4
f 143/1/4 144/1/4 148/1/4
f 147/2/4 143/2/4 148/2/4
f 144/2/4 145/2/4 149/2/4
f 148/1/4 144/1/4 149/1/4
f 149/2/4 145/2/4 150/2/4
f 154/2/5 152/2/5 151/2/5
f 155/1/5 153/1/5 152/1/5
f 155/2/5 152/2/5 154/2/5
f 156/1/5 153/1/5 155/1/5
f 161/1/5 158/1/5 157/1/5
f 162/1/5 158/1/5 161/1/5
f 163/2/5 160/2/5 159/2/5
f 164/2/5 160/2/5 163/2/5
f 169/1/5 166/1/5 165/1/5
f 170/1/5 166/1/5 169/1/5
f 171/2/5 168/2/5 167/2/5
f 172/2/5 168/2/5 171/2/5
f 177/2/5 174/2/5 173/2/5
f 178/2/5 174/2/5 177/2/5
f 179/2/5 176/2/5 175/2/5
f 180/2/5 176/2/5 179/2/5
f 183/1/5 182/1/5 181/1/5
f 184/1/5 182/1/5 183/1/5
f 185/2/6 186/2/6 187/2/6
f 187/2/6 186/2/6 188/2/6
f 189/2/6 190/2/6 193/2/6
f 193/2/6 190/2/6 194/2/6
f 191/2/6 192/2/6 195/2/6
f 195/2/6 192/2/6 196/2/6
f 197/1/6 198/1/6 201/1/6
f 201/1/6 198/1/6 202/1/6
f 199/2/6 200/2/6 203/2/6
f 203/2/6 200/2/6 204/2/6
f 205/1/6 206/1/6 209/1/6
f 209/1/6 206/1/6 210/1/6
f 207/2/6 208/2/6 211/2/6
f 211/2/6 208/2/6 212/2/6
f 213/2/6 214/2/6 217/2/6
f 214/1/6 215/1/6 218/1/6
f 217/2/6 214/2/6 218/2/6
f 215/2/6 216/2/6 219/2/6
f 218/1/6 215/1/6 219/1/6
f 219/2/6 216/2/6 220/2/6
