# MagicaVoxel @ Ephtracy

# group
o 

# material
mtllib Object's-5.mtl
usemtl palette

# normals
vn -1 0 0
vn 1 0 0
vn 0 0 1
vn 0 0 -1
vn 0 -1 0
vn 0 1 0

# texcoords
vt 0.826172 0.5
vt 0.857422 0.5
vt 0.888672 0.5
vt 0.919922 0.5
vt 0.951172 0.5
vt 0.982422 0.5

# verts
v 3.1 0.5 -1.7
v 3.1 0.5 -1.8
v 3.1 0.6 -1.7
v 3.1 0.6 -1.8
v 3.2 0.1 -1.5
v 3.2 0.1 -1.8
v 3.2 0.2 -1.5
v 3.2 0.2 -1.8
v 3.2 0.3 -1.5
v 3.2 0.3 -1.8
v 3.2 0.4 -1.5
v 3.2 0.4 -1.8
v 3.2 0.4 -1.9
v 3.2 0.5 -1.5
v 3.2 0.5 -1.7
v 3.2 0.5 -1.8
v 3.2 0.5 -1.9
v 3.2 0.6 -1.5
v 3.2 0.6 -1.7
v 3.2 0.6 -1.8
v 3.2 0.6 -1.9
v 3.2 0.7 -1.7
v 3.2 0.7 -1.8
v 3.3 0 -1.5
v 3.3 0 -1.8
v 3.3 0.1 -1.4
v 3.3 0.1 -1.5
v 3.3 0.1 -1.8
v 3.3 0.1 -1.9
v 3.3 0.2 -1.4
v 3.3 0.2 -1.5
v 3.3 0.2 -1.8
v 3.3 0.2 -1.9
v 3.3 0.3 -1.4
v 3.3 0.3 -1.5
v 3.3 0.3 -1.8
v 3.3 0.3 -1.9
v 3.3 0.4 -1.4
v 3.3 0.4 -1.5
v 3.3 0.4 -1.8
v 3.3 0.4 -1.9
v 3.3 0.5 -1.4
v 3.3 0.5 -1.5
v 3.3 0.5 -1.9
v 3.3 0.5 -2
v 3.3 0.6 -1.4
v 3.3 0.6 -1.5
v 3.3 0.6 -1.6
v 3.3 0.6 -1.7
v 3.3 0.6 -1.8
v 3.3 0.6 -1.9
v 3.3 0.6 -2
v 3.3 0.7 -1.5
v 3.3 0.7 -1.6
v 3.3 0.7 -1.7
v 3.3 0.7 -1.8
v 3.3 0.7 -1.9
v 3.3 0.8 -1.6
v 3.3 0.8 -1.7
v 3.3 0.8 -1.8
v 3.5 0.6 -1.5
v 3.5 0.6 -1.6
v 3.5 0.7 -1.5
v 3.5 0.7 -1.6
v 3.8 0.2 -1.6
v 3.8 0.2 -1.7
v 3.8 0.5 -1.6
v 3.8 0.5 -1.7
v 3.4 0.5 -1.9
v 3.4 0.5 -2
v 3.4 0.6 -1.5
v 3.4 0.6 -1.6
v 3.4 0.6 -1.8
v 3.4 0.6 -1.9
v 3.4 0.6 -2
v 3.4 0.7 -1.5
v 3.4 0.7 -1.6
v 3.4 0.7 -1.7
v 3.4 0.7 -1.8
v 3.4 0.7 -1.9
v 3.4 0.8 -1.6
v 3.4 0.8 -1.7
v 3.4 0.8 -1.8
v 3.5 0.6 -1.6
v 3.5 0.6 -1.7
v 3.5 0.6 -1.8
v 3.5 0.7 -1.6
v 3.5 0.7 -1.8
v 3.6 0 -1.5
v 3.6 0 -1.8
v 3.6 0.1 -1.4
v 3.6 0.1 -1.5
v 3.6 0.1 -1.8
v 3.6 0.1 -1.9
v 3.6 0.2 -1.4
v 3.6 0.2 -1.5
v 3.6 0.2 -1.8
v 3.6 0.2 -1.9
v 3.6 0.3 -1.4
v 3.6 0.3 -1.5
v 3.6 0.3 -1.8
v 3.6 0.3 -1.9
v 3.6 0.4 -1.4
v 3.6 0.4 -1.5
v 3.6 0.4 -1.8
v 3.6 0.4 -1.9
v 3.6 0.5 -1.4
v 3.6 0.5 -1.5
v 3.6 0.5 -1.8
v 3.6 0.5 -1.9
v 3.6 0.6 -1.4
v 3.6 0.6 -1.5
v 3.6 0.6 -1.6
v 3.6 0.6 -1.8
v 3.6 0.6 -1.9
v 3.6 0.7 -1.5
v 3.6 0.7 -1.6
v 3.7 0.1 -1.5
v 3.7 0.1 -1.6
v 3.7 0.1 -1.7
v 3.7 0.1 -1.8
v 3.7 0.2 -1.5
v 3.7 0.2 -1.6
v 3.7 0.2 -1.7
v 3.7 0.2 -1.8
v 3.7 0.3 -1.5
v 3.7 0.3 -1.8
v 3.7 0.4 -1.5
v 3.7 0.4 -1.8
v 3.7 0.5 -1.5
v 3.7 0.5 -1.6
v 3.7 0.5 -1.7
v 3.7 0.5 -1.8
v 3.7 0.6 -1.5
v 3.7 0.6 -1.6
v 3.7 0.6 -1.7
v 3.7 0.6 -1.8
v 3.8 0.1 -1.6
v 3.8 0.1 -1.7
v 3.8 0.2 -1.6
v 3.8 0.2 -1.7
v 3.8 0.5 -1.6
v 3.8 0.5 -1.7
v 3.8 0.6 -1.6
v 3.8 0.6 -1.7
v 3.9 0.2 -1.6
v 3.9 0.2 -1.7
v 3.9 0.5 -1.6
v 3.9 0.5 -1.7
v 3.3 0.1 -1.4
v 3.3 0.2 -1.4
v 3.3 0.3 -1.4
v 3.3 0.4 -1.4
v 3.3 0.5 -1.4
v 3.3 0.6 -1.4
v 3.6 0.1 -1.4
v 3.6 0.2 -1.4
v 3.6 0.3 -1.4
v 3.6 0.4 -1.4
v 3.6 0.5 -1.4
v 3.6 0.6 -1.4
v 3.2 0.1 -1.5
v 3.2 0.2 -1.5
v 3.2 0.3 -1.5
v 3.2 0.4 -1.5
v 3.2 0.5 -1.5
v 3.2 0.6 -1.5
v 3.3 0 -1.5
v 3.3 0.1 -1.5
v 3.3 0.2 -1.5
v 3.3 0.3 -1.5
v 3.3 0.4 -1.5
v 3.3 0.5 -1.5
v 3.3 0.6 -1.5
v 3.3 0.7 -1.5
v 3.4 0.6 -1.5
v 3.4 0.7 -1.5
v 3.5 0.6 -1.5
v 3.5 0.7 -1.5
v 3.6 0 -1.5
v 3.6 0.1 -1.5
v 3.6 0.2 -1.5
v 3.6 0.3 -1.5
v 3.6 0.4 -1.5
v 3.6 0.5 -1.5
v 3.6 0.6 -1.5
v 3.6 0.7 -1.5
v 3.7 0.1 -1.5
v 3.7 0.2 -1.5
v 3.7 0.3 -1.5
v 3.7 0.4 -1.5
v 3.7 0.5 -1.5
v 3.7 0.6 -1.5
v 3.3 0.7 -1.6
v 3.3 0.8 -1.6
v 3.4 0.6 -1.6
v 3.4 0.7 -1.6
v 3.4 0.8 -1.6
v 3.5 0.6 -1.6
v 3.5 0.7 -1.6
v 3.7 0.1 -1.6
v 3.7 0.2 -1.6
v 3.7 0.5 -1.6
v 3.7 0.6 -1.6
v 3.8 0.1 -1.6
v 3.8 0.2 -1.6
v 3.8 0.5 -1.6
v 3.8 0.6 -1.6
v 3.9 0.2 -1.6
v 3.9 0.5 -1.6
v 3.1 0.5 -1.7
v 3.1 0.6 -1.7
v 3.2 0.5 -1.7
v 3.2 0.6 -1.7
v 3.2 0.7 -1.7
v 3.3 0.6 -1.7
v 3.3 0.7 -1.7
v 3.5 0.6 -1.6
v 3.5 0.7 -1.6
v 3.6 0.6 -1.6
v 3.6 0.7 -1.6
v 3.7 0.1 -1.7
v 3.7 0.2 -1.7
v 3.7 0.5 -1.7
v 3.7 0.6 -1.7
v 3.8 0.1 -1.7
v 3.8 0.2 -1.7
v 3.8 0.5 -1.7
v 3.8 0.6 -1.7
v 3.9 0.2 -1.7
v 3.9 0.5 -1.7
v 3.1 0.5 -1.8
v 3.1 0.6 -1.8
v 3.2 0.1 -1.8
v 3.2 0.2 -1.8
v 3.2 0.3 -1.8
v 3.2 0.4 -1.8
v 3.2 0.5 -1.8
v 3.2 0.6 -1.8
v 3.2 0.7 -1.8
v 3.3 0 -1.8
v 3.3 0.1 -1.8
v 3.3 0.2 -1.8
v 3.3 0.3 -1.8
v 3.3 0.4 -1.8
v 3.3 0.6 -1.8
v 3.3 0.7 -1.8
v 3.3 0.8 -1.8
v 3.4 0.6 -1.8
v 3.4 0.7 -1.8
v 3.4 0.8 -1.8
v 3.5 0.6 -1.8
v 3.5 0.7 -1.8
v 3.6 0 -1.8
v 3.6 0.1 -1.8
v 3.6 0.2 -1.8
v 3.6 0.3 -1.8
v 3.6 0.4 -1.8
v 3.6 0.5 -1.8
v 3.6 0.6 -1.8
v 3.7 0.1 -1.8
v 3.7 0.2 -1.8
v 3.7 0.3 -1.8
v 3.7 0.4 -1.8
v 3.7 0.5 -1.8
v 3.7 0.6 -1.8
v 3.2 0.4 -1.9
v 3.2 0.5 -1.9
v 3.2 0.6 -1.9
v 3.3 0.1 -1.9
v 3.3 0.2 -1.9
v 3.3 0.3 -1.9
v 3.3 0.4 -1.9
v 3.3 0.5 -1.9
v 3.3 0.6 -1.9
v 3.3 0.7 -1.9
v 3.4 0.5 -1.9
v 3.4 0.6 -1.9
v 3.4 0.7 -1.9
v 3.6 0.1 -1.9
v 3.6 0.2 -1.9
v 3.6 0.3 -1.9
v 3.6 0.4 -1.9
v 3.6 0.5 -1.9
v 3.6 0.6 -1.9
v 3.3 0.5 -2
v 3.3 0.6 -2
v 3.4 0.5 -2
v 3.4 0.6 -2
v 3.3 0 -1.5
v 3.6 0 -1.5
v 3.3 0 -1.8
v 3.6 0 -1.8
v 3.3 0.1 -1.4
v 3.6 0.1 -1.4
v 3.2 0.1 -1.5
v 3.3 0.1 -1.5
v 3.6 0.1 -1.5
v 3.7 0.1 -1.5
v 3.7 0.1 -1.6
v 3.8 0.1 -1.6
v 3.7 0.1 -1.7
v 3.8 0.1 -1.7
v 3.2 0.1 -1.8
v 3.3 0.1 -1.8
v 3.6 0.1 -1.8
v 3.7 0.1 -1.8
v 3.3 0.1 -1.9
v 3.6 0.1 -1.9
v 3.8 0.2 -1.6
v 3.9 0.2 -1.6
v 3.8 0.2 -1.7
v 3.9 0.2 -1.7
v 3.2 0.4 -1.8
v 3.3 0.4 -1.8
v 3.2 0.4 -1.9
v 3.3 0.4 -1.9
v 3.7 0.5 -1.6
v 3.8 0.5 -1.6
v 3.1 0.5 -1.7
v 3.2 0.5 -1.7
v 3.7 0.5 -1.7
v 3.8 0.5 -1.7
v 3.1 0.5 -1.8
v 3.2 0.5 -1.8
v 3.3 0.5 -1.9
v 3.4 0.5 -1.9
v 3.3 0.5 -2
v 3.4 0.5 -2
v 3.7 0.2 -1.6
v 3.8 0.2 -1.6
v 3.7 0.2 -1.7
v 3.8 0.2 -1.7
v 3.8 0.5 -1.6
v 3.9 0.5 -1.6
v 3.8 0.5 -1.7
v 3.9 0.5 -1.7
v 3.3 0.6 -1.4
v 3.6 0.6 -1.4
v 3.2 0.6 -1.5
v 3.3 0.6 -1.5
v 3.4 0.6 -1.5
v 3.5 0.6 -1.5
v 3.6 0.6 -1.5
v 3.7 0.6 -1.5
v 3.3 0.6 -1.6
v 3.4 0.6 -1.6
v 3.5 0.6 -1.6
v 3.6 0.6 -1.6
v 3.7 0.6 -1.6
v 3.8 0.6 -1.6
v 3.1 0.6 -1.7
v 3.2 0.6 -1.7
v 3.3 0.6 -1.7
v 3.5 0.6 -1.7
v 3.6 0.6 -1.7
v 3.7 0.6 -1.7
v 3.8 0.6 -1.7
v 3.1 0.6 -1.8
v 3.2 0.6 -1.8
v 3.3 0.6 -1.8
v 3.4 0.6 -1.8
v 3.5 0.6 -1.8
v 3.6 0.6 -1.8
v 3.7 0.6 -1.8
v 3.2 0.6 -1.9
v 3.3 0.6 -1.9
v 3.4 0.6 -1.9
v 3.6 0.6 -1.9
v 3.3 0.6 -2
v 3.4 0.6 -2
v 3.3 0.7 -1.5
v 3.4 0.7 -1.5
v 3.5 0.7 -1.5
v 3.6 0.7 -1.5
v 3.3 0.7 -1.6
v 3.4 0.7 -1.6
v 3.5 0.7 -1.6
v 3.6 0.7 -1.6
v 3.2 0.7 -1.7
v 3.3 0.7 -1.7
v 3.4 0.7 -1.7
v 3.2 0.7 -1.8
v 3.3 0.7 -1.8
v 3.4 0.7 -1.8
v 3.5 0.7 -1.8
v 3.3 0.7 -1.9
v 3.4 0.7 -1.9
v 3.3 0.8 -1.6
v 3.4 0.8 -1.6
v 3.3 0.8 -1.7
v 3.4 0.8 -1.7
v 3.3 0.8 -1.8
v 3.4 0.8 -1.8

# faces
f 3/2/1 2/2/1 1/2/1
f 4/2/1 2/2/1 3/2/1
f 7/6/1 6/6/1 5/6/1
f 8/6/1 6/6/1 7/6/1
f 9/5/1 8/5/1 7/5/1
f 10/5/1 8/5/1 9/5/1
f 11/6/1 10/6/1 9/6/1
f 12/6/1 10/6/1 11/6/1
f 14/5/1 12/5/1 11/5/1
f 15/5/1 12/5/1 14/5/1
f 16/1/1 13/1/1 12/1/1
f 16/5/1 12/5/1 15/5/1
f 17/1/1 13/1/1 16/1/1
f 18/6/1 15/6/1 14/6/1
f 19/6/1 15/6/1 18/6/1
f 20/2/1 17/2/1 16/2/1
f 21/2/1 17/2/1 20/2/1
f 22/1/1 20/1/1 19/1/1
f 23/1/1 20/1/1 22/1/1
f 27/6/1 25/6/1 24/6/1
f 28/6/1 25/6/1 27/6/1
f 30/6/1 27/6/1 26/6/1
f 31/6/1 27/6/1 30/6/1
f 32/6/1 29/6/1 28/6/1
f 33/6/1 29/6/1 32/6/1
f 34/5/1 31/5/1 30/5/1
f 35/5/1 31/5/1 34/5/1
f 36/5/1 33/5/1 32/5/1
f 37/5/1 33/5/1 36/5/1
f 38/6/1 35/6/1 34/6/1
f 39/6/1 35/6/1 38/6/1
f 40/6/1 37/6/1 36/6/1
f 41/6/1 37/6/1 40/6/1
f 42/5/1 39/5/1 38/5/1
f 43/5/1 39/5/1 42/5/1
f 46/6/1 43/6/1 42/6/1
f 47/6/1 43/6/1 46/6/1
f 51/2/1 45/2/1 44/2/1
f 52/2/1 45/2/1 51/2/1
f 53/1/1 48/1/1 47/1/1
f 54/2/1 49/2/1 48/2/1
f 54/1/1 48/1/1 53/1/1
f 55/2/1 49/2/1 54/2/1
f 56/2/1 51/2/1 50/2/1
f 57/2/1 51/2/1 56/2/1
f 58/2/1 55/2/1 54/2/1
f 59/1/1 56/1/1 55/1/1
f 59/2/1 55/2/1 58/2/1
f 60/1/1 56/1/1 59/1/1
f 63/2/1 62/2/1 61/2/1
f 64/2/1 62/2/1 63/2/1
f 67/6/1 66/6/1 65/6/1
f 68/6/1 66/6/1 67/6/1
f 69/2/2 70/2/2 74/2/2
f 74/2/2 70/2/2 75/2/2
f 71/1/2 72/1/2 76/1/2
f 76/1/2 72/1/2 77/1/2
f 73/2/2 74/2/2 79/2/2
f 79/2/2 74/2/2 80/2/2
f 77/2/2 78/2/2 81/2/2
f 78/1/2 79/1/2 82/1/2
f 81/2/2 78/2/2 82/2/2
f 82/1/2 79/1/2 83/1/2
f 84/2/2 85/2/2 87/2/2
f 85/2/2 86/2/2 87/2/2
f 87/2/2 86/2/2 88/2/2
f 89/6/2 90/6/2 92/6/2
f 92/6/2 90/6/2 93/6/2
f 91/6/2 92/6/2 95/6/2
f 95/6/2 92/6/2 96/6/2
f 93/6/2 94/6/2 97/6/2
f 97/6/2 94/6/2 98/6/2
f 95/5/2 96/5/2 99/5/2
f 99/5/2 96/5/2 100/5/2
f 97/5/2 98/5/2 101/5/2
f 101/5/2 98/5/2 102/5/2
f 99/6/2 100/6/2 103/6/2
f 103/6/2 100/6/2 104/6/2
f 101/6/2 102/6/2 105/6/2
f 105/6/2 102/6/2 106/6/2
f 103/5/2 104/5/2 107/5/2
f 107/5/2 104/5/2 108/5/2
f 105/5/2 106/5/2 109/5/2
f 109/5/2 106/5/2 110/5/2
f 107/6/2 108/6/2 111/6/2
f 111/6/2 108/6/2 112/6/2
f 109/6/2 110/6/2 114/6/2
f 114/6/2 110/6/2 115/6/2
f 112/2/2 113/2/2 116/2/2
f 116/2/2 113/2/2 117/2/2
f 118/6/2 119/6/2 122/6/2
f 122/6/2 119/6/2 123/6/2
f 120/6/2 121/6/2 124/6/2
f 124/6/2 121/6/2 125/6/2
f 122/5/2 123/5/2 126/5/2
f 123/5/2 124/5/2 126/5/2
f 124/5/2 125/5/2 126/5/2
f 126/5/2 125/5/2 127/5/2
f 126/6/2 127/6/2 128/6/2
f 128/6/2 127/6/2 129/6/2
f 128/5/2 129/5/2 130/5/2
f 130/5/2 129/5/2 131/5/2
f 131/5/2 129/5/2 132/5/2
f 132/5/2 129/5/2 133/5/2
f 130/6/2 131/6/2 134/6/2
f 134/6/2 131/6/2 135/6/2
f 132/6/2 133/6/2 136/6/2
f 136/6/2 133/6/2 137/6/2
f 138/6/2 139/6/2 140/6/2
f 140/6/2 139/6/2 141/6/2
f 142/6/2 143/6/2 144/6/2
f 144/6/2 143/6/2 145/6/2
f 146/6/2 147/6/2 148/6/2
f 148/6/2 147/6/2 149/6/2
f 156/6/3 151/6/3 150/6/3
f 157/5/3 152/5/3 151/5/3
f 157/6/3 151/6/3 156/6/3
f 158/6/3 153/6/3 152/6/3
f 158/5/3 152/5/3 157/5/3
f 159/5/3 154/5/3 153/5/3
f 159/6/3 153/6/3 158/6/3
f 160/6/3 155/6/3 154/6/3
f 160/5/3 154/5/3 159/5/3
f 161/6/3 155/6/3 160/6/3
f 169/6/3 163/6/3 162/6/3
f 170/5/3 164/5/3 163/5/3
f 170/6/3 163/6/3 169/6/3
f 171/6/3 165/6/3 164/6/3
f 171/5/3 164/5/3 170/5/3
f 172/5/3 166/5/3 165/5/3
f 172/6/3 165/6/3 171/6/3
f 173/6/3 167/6/3 166/6/3
f 173/5/3 166/5/3 172/5/3
f 174/6/3 167/6/3 173/6/3
f 176/1/3 175/1/3 174/1/3
f 177/1/3 175/1/3 176/1/3
f 180/6/3 169/6/3 168/6/3
f 181/6/3 169/6/3 180/6/3
f 186/2/3 179/2/3 178/2/3
f 187/2/3 179/2/3 186/2/3
f 188/6/3 182/6/3 181/6/3
f 189/5/3 183/5/3 182/5/3
f 189/6/3 182/6/3 188/6/3
f 190/6/3 184/6/3 183/6/3
f 190/5/3 183/5/3 189/5/3
f 191/5/3 185/5/3 184/5/3
f 191/6/3 184/6/3 190/6/3
f 192/6/3 186/6/3 185/6/3
f 192/5/3 185/5/3 191/5/3
f 193/6/3 186/6/3 192/6/3
f 197/2/3 195/2/3 194/2/3
f 198/2/3 195/2/3 197/2/3
f 199/2/3 197/2/3 196/2/3
f 200/2/3 197/2/3 199/2/3
f 205/6/3 202/6/3 201/6/3
f 206/6/3 202/6/3 205/6/3
f 207/6/3 204/6/3 203/6/3
f 208/6/3 204/6/3 207/6/3
f 209/6/3 207/6/3 206/6/3
f 210/6/3 207/6/3 209/6/3
f 213/2/3 212/2/3 211/2/3
f 214/2/3 212/2/3 213/2/3
f 216/1/3 215/1/3 214/1/3
f 217/1/3 215/1/3 216/1/3
f 218/2/4 219/2/4 220/2/4
f 220/2/4 219/2/4 221/2/4
f 222/6/4 223/6/4 226/6/4
f 226/6/4 223/6/4 227/6/4
f 224/6/4 225/6/4 228/6/4
f 228/6/4 225/6/4 229/6/4
f 227/6/4 228/6/4 230/6/4
f 230/6/4 228/6/4 231/6/4
f 232/2/4 233/2/4 238/2/4
f 238/2/4 233/2/4 239/2/4
f 234/6/4 235/6/4 242/6/4
f 235/5/4 236/5/4 243/5/4
f 242/6/4 235/6/4 243/6/4
f 236/6/4 237/6/4 244/6/4
f 243/5/4 236/5/4 244/5/4
f 244/6/4 237/6/4 245/6/4
f 239/1/4 240/1/4 246/1/4
f 246/1/4 240/1/4 247/1/4
f 247/1/4 248/1/4 250/1/4
f 250/1/4 248/1/4 251/1/4
f 249/2/4 250/2/4 252/2/4
f 252/2/4 250/2/4 253/2/4
f 241/6/4 242/6/4 254/6/4
f 254/6/4 242/6/4 255/6/4
f 255/6/4 256/6/4 261/6/4
f 256/5/4 257/5/4 262/5/4
f 261/6/4 256/6/4 262/6/4
f 257/6/4 258/6/4 263/6/4
f 262/5/4 257/5/4 263/5/4
f 258/5/4 259/5/4 264/5/4
f 263/6/4 258/6/4 264/6/4
f 259/6/4 260/6/4 265/6/4
f 264/5/4 259/5/4 265/5/4
f 265/6/4 260/6/4 266/6/4
f 267/1/4 268/1/4 273/1/4
f 268/2/4 269/2/4 274/2/4
f 273/1/4 268/1/4 274/1/4
f 274/2/4 269/2/4 275/2/4
f 273/5/4 274/5/4 277/5/4
f 275/2/4 276/2/4 278/2/4
f 278/2/4 276/2/4 279/2/4
f 270/6/4 271/6/4 280/6/4
f 271/5/4 272/5/4 281/5/4
f 280/6/4 271/6/4 281/6/4
f 272/6/4 273/6/4 282/6/4
f 281/5/4 272/5/4 282/5/4
f 273/5/4 277/5/4 283/5/4
f 282/6/4 273/6/4 283/6/4
f 277/6/4 278/6/4 284/6/4
f 283/5/4 277/5/4 284/5/4
f 284/6/4 278/6/4 285/6/4
f 286/2/4 287/2/4 288/2/4
f 288/2/4 287/2/4 289/2/4
f 292/6/5 291/6/5 290/6/5
f 293/6/5 291/6/5 292/6/5
f 297/6/5 295/6/5 294/6/5
f 298/6/5 295/6/5 297/6/5
f 300/6/5 299/6/5 298/6/5
f 302/6/5 300/6/5 298/6/5
f 302/6/5 301/6/5 300/6/5
f 303/6/5 301/6/5 302/6/5
f 304/6/5 297/6/5 296/6/5
f 305/6/5 297/6/5 304/6/5
f 306/6/5 302/6/5 298/6/5
f 307/6/5 302/6/5 306/6/5
f 308/6/5 306/6/5 305/6/5
f 309/6/5 306/6/5 308/6/5
f 312/6/5 311/6/5 310/6/5
f 313/6/5 311/6/5 312/6/5
f 316/1/5 315/1/5 314/1/5
f 317/1/5 315/1/5 316/1/5
f 322/6/5 319/6/5 318/6/5
f 323/6/5 319/6/5 322/6/5
f 324/2/5 321/2/5 320/2/5
f 325/2/5 321/2/5 324/2/5
f 328/2/5 327/2/5 326/2/5
f 329/2/5 327/2/5 328/2/5
f 330/6/6 331/6/6 332/6/6
f 332/6/6 331/6/6 333/6/6
f 334/6/6 335/6/6 336/6/6
f 336/6/6 335/6/6 337/6/6
f 338/6/6 339/6/6 341/6/6
f 341/6/6 339/6/6 342/6/6
f 342/6/6 339/6/6 343/6/6
f 343/6/6 339/6/6 344/6/6
f 340/6/6 341/6/6 346/6/6
f 342/3/6 343/3/6 347/3/6
f 347/3/6 343/3/6 348/3/6
f 344/6/6 345/6/6 349/6/6
f 349/6/6 345/6/6 350/6/6
f 340/6/6 346/6/6 353/6/6
f 353/6/6 346/6/6 354/6/6
f 348/3/6 349/3/6 355/3/6
f 350/6/6 351/6/6 356/6/6
f 355/3/6 349/3/6 356/3/6
f 349/6/6 350/6/6 356/6/6
f 356/6/6 351/6/6 357/6/6
f 357/6/6 351/6/6 358/6/6
f 352/2/6 353/2/6 359/2/6
f 359/2/6 353/2/6 360/2/6
f 355/4/6 356/4/6 363/4/6
f 356/6/6 357/6/6 364/6/6
f 363/4/6 356/4/6 364/4/6
f 364/6/6 357/6/6 365/6/6
f 360/2/6 361/2/6 366/2/6
f 366/2/6 361/2/6 367/2/6
f 362/6/6 363/6/6 368/6/6
f 363/6/6 364/6/6 368/6/6
f 368/6/6 364/6/6 369/6/6
f 367/2/6 368/2/6 370/2/6
f 370/2/6 368/2/6 371/2/6
f 372/1/6 373/1/6 376/1/6
f 376/1/6 373/1/6 377/1/6
f 374/2/6 375/2/6 378/2/6
f 378/2/6 375/2/6 379/2/6
f 377/2/6 378/2/6 382/2/6
f 380/1/6 381/1/6 383/1/6
f 383/1/6 381/1/6 384/1/6
f 382/2/6 378/2/6 385/2/6
f 385/2/6 378/2/6 386/2/6
f 384/2/6 385/2/6 387/2/6
f 387/2/6 385/2/6 388/2/6
f 389/2/6 390/2/6 391/2/6
f 391/2/6 390/2/6 392/2/6
f 391/1/6 392/1/6 393/1/6
f 393/1/6 392/1/6 394/1/6
